<svg width="512" height="512" viewBox="0 0 512 512" fill="none" xmlns="http://www.w3.org/2000/svg">
<rect width="512" height="512" rx="128" fill="white"/>
<path fill-rule="evenodd" clip-rule="evenodd" d="M255.681 78.3051C204.084 78.3667 158.161 100.439 130.224 123.82C114.846 136.699 101.468 151.626 92.0722 171.245C83.1339 189.913 76.4258 214.788 78.3025 241.623C79.5751 259.715 87.9457 275.067 97.9722 286.03C107.573 296.54 121.837 306.716 137.304 311.244C150.529 315.114 167.889 313.693 177.421 309.365C190.656 303.353 198.337 288.332 195.507 269.095C193.859 257.87 186.464 249.851 178.2 246.131C169.942 242.417 150.989 244.846 149.101 234.465C147.445 225.39 155.84 220.292 163.257 219.413C179.844 217.448 197.257 229.68 203.771 236.356C213.636 246.463 221.235 261.982 221.468 278.122C221.696 294.703 214.035 309.746 204.548 320.279C191.153 335.155 165.81 342.251 139.655 335.706C124.161 331.829 107.96 323.955 95.6083 315.757C91.7038 313.442 89.1921 311.163 84.605 307.859C110.294 375.846 157.711 424.248 244.592 433.697C244.592 426.85 244.592 289.509 244.276 281.136C242.85 243.321 229.442 219.337 202.584 205.867C194.234 201.674 183.572 197.153 173.094 196.086C149.101 193.64 131.25 203.706 126.285 220.167C119.738 241.892 132.364 260.377 148.307 265.327C156.655 267.918 170.004 265.879 172.307 274.737C173.764 280.382 170.19 286.496 166.791 288.29C163.058 290.264 158.732 290.296 153.822 289.788C140.637 288.434 130.144 281.779 121.174 274.362C111.908 266.7 105.404 258.419 102.3 246.131C95.0764 217.591 111.004 191.64 128.247 181.033C151.156 166.934 184.285 174.402 206.125 182.912C229.703 192.099 242.666 208.143 255.681 228.446C268.695 208.143 281.66 192.099 305.237 182.912C327.077 174.402 360.206 166.934 383.115 181.033C400.359 191.64 416.286 217.591 409.061 246.131C405.958 258.419 399.454 266.7 390.189 274.362C381.219 281.779 370.724 288.434 357.54 289.788C352.631 290.296 348.304 290.264 344.572 288.29C341.173 286.496 337.599 280.382 339.055 274.737C341.358 265.879 354.707 267.918 363.055 265.327C378.997 260.377 391.625 241.892 385.077 220.167C380.113 203.706 362.262 193.64 338.269 196.086C327.79 197.153 317.128 201.674 308.778 205.867C281.921 219.337 268.512 243.321 267.086 281.136C266.769 289.509 266.769 426.85 266.769 433.697C353.651 424.248 401.069 375.846 426.758 307.859C422.171 311.163 419.659 313.442 415.755 315.757C403.403 323.955 387.202 331.829 371.708 335.706C345.552 342.251 320.209 335.155 306.814 320.279C297.327 309.746 289.666 294.703 289.894 278.122C290.128 261.982 297.727 246.463 307.591 236.356C314.105 229.68 331.519 217.448 348.105 219.413C355.522 220.292 363.918 225.39 362.262 234.465C360.372 244.846 341.421 242.417 333.163 246.131C324.897 249.851 317.504 257.87 315.856 269.095C313.025 288.332 320.707 303.353 333.942 309.365C343.474 313.693 360.834 315.114 374.059 311.244C389.526 306.716 403.79 296.54 413.391 286.03C423.417 275.067 431.787 259.715 433.06 241.623C434.936 214.788 428.228 189.913 419.29 171.245C409.895 151.626 396.516 136.699 381.139 123.82C353.201 100.439 307.278 78.3667 255.681 78.3051Z" fill="#007161"/>
<path d="M264.159 466.826C264.58 467.15 264.699 467.652 264.651 468.181C264.614 468.588 264.46 468.942 264.234 469.169L254.672 469.208C254.257 468.797 254.142 468.256 254.178 467.849C254.215 467.443 254.37 467.089 254.596 466.861L264.159 466.826Z" fill="black"/>
<path d="M313.843 453.321L318.972 475.716C319.33 477.324 319.658 478.614 319.937 479.597C320.224 480.567 320.544 481.301 320.901 481.773C321.261 482.258 321.719 482.556 322.289 482.674C322.857 482.792 323.605 482.792 324.53 482.678L325.546 482.569C325.692 482.634 325.799 482.774 325.872 482.997C325.942 483.211 325.972 483.434 325.96 483.666C325.946 483.884 325.887 484.055 325.78 484.155C324.896 484.317 324.046 484.483 323.247 484.636C322.448 484.789 321.661 484.951 320.877 485.121C320.103 485.292 319.289 485.471 318.456 485.663L306.855 488.364C305.518 488.674 304.274 488.963 303.104 489.247C301.942 489.518 300.959 489.767 300.151 489.977C299.346 490.195 298.821 490.366 298.568 490.488C298.412 490.23 298.216 489.806 297.979 489.194C297.744 488.595 297.499 487.896 297.231 487.11C296.953 486.323 296.681 485.51 296.419 484.697C296.155 483.876 295.906 483.124 295.686 482.446C295.75 482.298 295.873 482.171 296.064 482.062C296.256 481.953 296.456 481.883 296.666 481.856C296.887 481.826 297.058 481.865 297.2 481.961C297.595 482.643 297.976 483.268 298.337 483.849C298.707 484.426 299.116 484.933 299.551 485.366C299.986 485.803 300.496 486.139 301.094 486.384C301.682 486.629 302.405 486.769 303.243 486.782C303.927 486.782 304.773 486.694 305.769 486.506C306.779 486.327 307.958 486.087 309.314 485.759L313.756 484.728C314.366 484.597 314.791 484.461 315.036 484.308C315.272 484.155 315.384 483.889 315.355 483.521C315.333 483.146 315.226 482.582 315.038 481.808L312.189 469.366C312.068 468.793 311.934 468.4 311.795 468.168C311.645 467.941 311.425 467.827 311.115 467.845C310.815 467.862 310.358 467.946 309.753 468.098L306.175 468.929C304.869 469.235 303.775 469.523 302.884 469.794C301.994 470.069 301.368 470.314 301.016 470.524C300.785 470.655 300.596 470.821 300.443 471.005C300.291 471.197 300.185 471.437 300.117 471.761C300.04 472.084 300.019 472.517 300.034 473.046L300.123 475.712C300.039 475.86 299.893 475.983 299.687 476.074C299.47 476.171 299.252 476.21 299.024 476.21C298.806 476.206 298.63 476.144 298.504 476.022C298.39 475.524 298.276 474.929 298.164 474.248C298.05 473.561 297.925 472.827 297.79 472.049C297.654 471.263 297.495 470.48 297.313 469.685C297.139 468.924 296.947 468.186 296.738 467.456C296.529 466.731 296.328 466.044 296.14 465.411C295.952 464.781 295.805 464.235 295.699 463.767C295.758 463.601 295.891 463.475 296.085 463.374C296.288 463.269 296.502 463.212 296.738 463.199C296.963 463.191 297.147 463.234 297.289 463.335L298.4 465.629C298.643 466.175 298.952 466.626 299.325 466.975C299.7 467.338 300.209 467.526 300.854 467.548C301.304 467.574 301.929 467.517 302.711 467.377C303.491 467.242 304.483 467.032 305.676 466.752L309.254 465.922C309.864 465.791 310.311 465.664 310.586 465.537C310.87 465.402 311.022 465.214 311.057 464.943C311.084 464.69 311.038 464.296 310.907 463.767L308.899 454.997C308.531 453.345 308.148 452.005 307.749 450.972C307.35 449.94 306.848 449.217 306.244 448.8C306.026 448.654 305.747 448.523 305.4 448.429C305.064 448.333 304.608 448.275 304.042 448.265C303.476 448.254 302.732 448.318 301.829 448.442C300.928 448.575 299.797 448.794 298.45 449.107C296.887 449.471 295.608 449.801 294.615 450.098C293.621 450.395 292.83 450.678 292.233 450.959C291.64 451.249 291.156 451.548 290.766 451.879C290.274 452.331 289.76 453.161 289.226 454.377C288.692 455.594 288.207 457.116 287.767 458.934C287.636 459.069 287.474 459.165 287.264 459.2C287.059 459.248 286.841 459.244 286.635 459.196C286.426 459.135 286.26 459.021 286.125 458.855C286.108 458.269 286.119 457.557 286.163 456.707C286.206 455.856 286.263 454.969 286.347 454.053C286.419 453.141 286.513 452.278 286.612 451.481C286.711 450.681 286.814 450.046 286.921 449.563C289.712 448.979 292.49 448.386 295.244 447.778C298.006 447.168 300.755 446.54 303.501 445.901L309.053 444.609C309.928 444.405 310.768 444.199 311.589 443.997C312.419 443.793 313.289 443.568 314.217 443.319C315.146 443.071 316.209 442.791 317.403 442.469C317.544 442.513 317.666 442.626 317.772 442.808C317.879 442.991 317.948 443.194 317.978 443.416C318.007 443.638 317.975 443.832 317.882 443.995L315.889 444.655C315.029 444.921 314.374 445.227 313.908 445.564C313.435 445.904 313.142 446.377 313.016 446.962C312.879 447.551 312.891 448.357 313.047 449.368C313.202 450.381 313.463 451.707 313.843 453.321ZM353.634 460.848C353.702 461.888 353.743 462.767 353.767 463.501C353.791 464.235 353.79 464.703 353.765 464.912L353.65 464.965C353.427 464.773 353.155 464.523 352.834 464.187C352.514 463.855 352.17 463.496 351.796 463.094C351.422 462.692 351.062 462.295 350.697 461.888L343.374 453.782C342.963 453.35 342.706 453 342.579 452.741C342.464 452.479 342.501 452.252 342.705 452.057C342.907 451.861 343.295 451.64 343.848 451.403L350.964 448.209C351.49 447.962 351.885 447.808 352.132 447.767C352.375 447.715 352.547 447.791 352.624 447.989C352.703 448.198 352.769 448.552 352.798 449.064L353.634 460.848ZM333.001 442.225C332.462 441.63 332.007 441.1 331.645 440.645C331.278 440.181 331.026 439.793 330.885 439.472C330.765 439.176 330.846 438.861 331.135 438.521C331.415 438.186 331.854 437.848 332.446 437.514L334.047 436.585C334.133 436.419 334.152 436.224 334.095 436.016C334.048 435.805 333.943 435.618 333.799 435.45C333.645 435.287 333.479 435.198 333.286 435.18C332.46 435.585 331.503 436.062 330.422 436.594C329.33 437.13 328.1 437.717 326.71 438.341C325.842 438.73 325.029 439.084 324.253 439.421C323.487 439.753 322.717 440.074 321.961 440.379C321.206 440.683 320.431 440.996 319.632 441.308C319.576 441.438 319.559 441.609 319.596 441.825C319.633 442.041 319.709 442.239 319.835 442.416C319.949 442.598 320.095 442.719 320.277 442.766L321.917 442.239C322.559 442.021 323.14 441.923 323.665 441.909C324.194 441.905 324.718 442.041 325.259 442.323C325.794 442.595 326.412 443.053 327.092 443.679C327.777 444.314 328.601 445.156 329.564 446.214L347.844 466.101C348.849 467.203 349.868 468.304 350.882 469.418C351.909 470.541 352.889 471.665 353.841 472.775C354 472.95 354.176 473.033 354.373 473.037C354.572 473.041 354.758 472.989 354.941 472.91C355.037 472.552 355.168 472.167 355.333 471.756C355.493 471.333 355.71 470.909 355.979 470.498C356.243 470.078 356.572 469.698 356.97 469.344C356.78 469.069 356.629 468.728 356.52 468.321C356.411 467.915 356.324 467.434 356.264 466.853C356.204 466.276 356.165 465.581 356.125 464.759L355.072 446.365C354.924 443.834 354.811 441.615 354.735 439.716C354.653 437.807 354.595 436.156 354.549 434.744C354.507 433.341 354.462 432.116 354.419 431.076C354.384 430.264 354.458 429.567 354.643 428.995C354.825 428.436 355.086 427.957 355.433 427.592C355.776 427.217 356.178 426.896 356.628 426.66L358.46 425.628C358.528 425.469 358.527 425.283 358.461 425.08C358.394 424.877 358.289 424.691 358.145 424.523C358.001 424.355 357.855 424.257 357.7 424.222C356.913 424.611 356.053 425.042 355.095 425.519C354.148 425.99 353.188 426.456 352.223 426.889C350.862 427.467 349.706 427.962 348.732 428.375C347.759 428.788 346.898 429.14 346.13 429.415C345.995 429.58 345.94 429.768 345.958 429.994C345.986 430.214 346.062 430.412 346.186 430.589C346.321 430.762 346.476 430.879 346.658 430.925L348.645 430.243C349.115 430.079 349.501 429.987 349.782 429.967C350.065 429.955 350.295 430.003 350.455 430.129C350.61 430.247 350.734 430.424 350.838 430.657C350.979 430.977 351.118 431.579 351.267 432.467C351.411 433.37 351.556 434.561 351.702 436.068L352.382 443.1C352.437 443.565 352.425 443.932 352.347 444.199C352.283 444.473 352.132 444.704 351.882 444.898C351.643 445.087 351.278 445.286 350.803 445.487L342.067 449.408C341.501 449.673 341.055 449.839 340.726 449.905C340.407 449.967 340.12 449.92 339.876 449.786C339.638 449.637 339.365 449.387 339.051 449.014L333.001 442.225ZM373.202 424.146L386.132 442.763C387.081 444.146 387.882 445.243 388.518 446.067C389.17 446.893 389.744 447.46 390.264 447.782C390.79 448.113 391.325 448.215 391.896 448.111C392.462 447.997 393.149 447.707 393.946 447.223L395.316 446.412C395.474 446.417 395.625 446.504 395.776 446.684C395.92 446.855 396.03 447.051 396.106 447.271C396.174 447.481 396.182 447.658 396.12 447.792C395.24 448.362 394.435 448.891 393.699 449.371C392.955 449.857 392.251 450.328 391.571 450.795C390.89 451.262 390.193 451.743 389.475 452.248C388.792 452.732 388.124 453.216 387.472 453.688C386.822 454.161 386.151 454.66 385.452 455.193C384.752 455.725 383.982 456.308 383.152 456.947C383.005 456.959 382.843 456.891 382.67 456.754C382.491 456.607 382.346 456.436 382.236 456.241C382.121 456.037 382.09 455.864 382.139 455.712L383.364 454.692C384.088 454.103 384.594 453.551 384.894 453.054C385.186 452.549 385.273 452.006 385.145 451.395C385.023 450.793 384.69 450.054 384.143 449.154C383.593 448.27 382.844 447.135 381.879 445.765L368.948 427.148C368 425.765 367.205 424.676 366.574 423.862C365.941 423.06 365.372 422.501 364.859 422.189C364.351 421.884 363.816 421.781 363.245 421.886C362.679 422 361.986 422.281 361.17 422.74L359.764 423.499C359.605 423.494 359.455 423.405 359.305 423.227C359.16 423.055 359.05 422.86 358.981 422.65C358.906 422.429 358.898 422.252 358.96 422.118C359.84 421.549 360.646 421.02 361.381 420.539C362.117 420.059 362.811 419.595 363.474 419.139C364.138 418.685 364.819 418.216 365.502 417.734C366.219 417.228 366.905 416.731 367.573 416.246C368.242 415.762 368.921 415.256 369.629 414.717C370.328 414.184 371.097 413.603 371.929 412.964C372.075 412.951 372.231 413.011 372.399 413.139C372.566 413.268 372.704 413.43 372.814 413.625C372.924 413.821 372.966 414.012 372.941 414.198L371.753 415.271C371.046 415.886 370.547 416.447 370.248 416.943C369.955 417.449 369.868 417.991 369.977 418.576C370.093 419.17 370.42 419.899 370.949 420.773C371.494 421.649 372.237 422.774 373.202 424.146ZM421.063 420.577C421.374 420.896 421.588 421.175 421.721 421.428C421.862 421.674 421.875 421.938 421.783 422.214C421.684 422.496 421.448 422.849 421.075 423.272C420.694 423.689 420.146 424.233 419.435 424.901C418.146 426.098 416.848 426.94 415.547 427.421C414.252 427.91 412.984 428.099 411.755 427.988C410.527 427.877 409.367 427.528 408.282 426.948C407.197 426.368 406.238 425.611 405.373 424.678C404.409 423.619 403.675 422.622 403.207 421.68C402.725 420.738 402.427 419.854 402.313 419.028C402.2 418.205 402.204 417.429 402.334 416.71C402.472 415.956 402.722 415.226 403.08 414.569C403.439 413.897 403.879 413.264 404.378 412.68C404.883 412.088 405.419 411.526 405.981 411.012C406.761 410.28 407.385 409.707 407.855 409.31C408.325 408.897 408.677 408.622 408.915 408.458C409.151 408.308 409.311 408.231 409.393 408.241C409.549 408.269 409.753 408.412 410.006 408.654C410.259 408.897 410.568 409.231 410.958 409.651L421.063 420.577ZM405.426 395.996C404.295 394.79 403.411 393.788 402.766 393.012C402.129 392.229 401.711 391.56 401.514 391.004C401.332 390.448 401.35 389.906 401.57 389.379C401.797 388.861 402.206 388.243 402.806 387.549L403.834 386.32C403.819 386.116 403.744 385.925 403.608 385.747C403.472 385.569 403.32 385.436 403.144 385.339C402.961 385.235 402.805 385.207 402.662 385.239C401.973 385.946 401.316 386.607 400.696 387.233C400.085 387.852 399.474 388.455 398.871 389.036C398.268 389.616 397.643 390.219 397.002 390.822C396.393 391.395 395.783 391.953 395.197 392.49C394.611 393.026 394.003 393.57 393.379 394.112C392.747 394.662 392.077 395.248 391.361 395.862C391.319 396.004 391.343 396.17 391.441 396.371C391.539 396.569 391.675 396.747 391.841 396.896C392.007 397.045 392.176 397.119 392.349 397.118L393.45 396.344C394.193 395.805 394.834 395.435 395.371 395.251C395.906 395.067 396.444 395.086 396.982 395.308C397.511 395.537 398.138 395.996 398.867 396.692C399.583 397.387 400.513 398.345 401.628 399.567L407.07 405.45C407.381 405.754 407.558 406.025 407.618 406.245C407.677 406.465 407.562 406.747 407.29 407.076C407.018 407.405 406.53 407.892 405.843 408.523C405.234 409.097 404.674 409.521 404.178 409.796C403.677 410.066 403.186 410.221 402.706 410.264C402.22 410.3 401.713 410.252 401.173 410.12C400.321 409.932 399.402 409.705 398.418 409.452C397.426 409.206 396.427 408.937 395.428 408.669C394.422 408.408 393.46 408.148 392.542 407.92C391.631 407.685 390.817 407.49 390.113 407.337C388.207 406.931 386.543 406.692 385.089 406.618C383.643 406.553 382.348 406.65 381.203 406.911C380.067 407.164 378.999 407.6 378.016 408.19C377.032 408.781 376.056 409.538 375.084 410.466C374.636 410.888 374.264 411.281 373.944 411.654C373.641 412.027 373.405 412.35 373.261 412.617C373.24 412.826 373.308 412.994 373.438 413.12C373.583 413.245 373.746 413.28 373.913 413.226C374.596 412.686 375.312 412.274 376.076 411.992C376.848 411.703 377.585 411.549 378.318 411.529C380.165 411.436 382.112 411.513 384.141 411.787C386.17 412.047 388.412 412.472 390.848 413.047C393.285 413.637 396.038 414.351 399.115 415.197C399.419 415.276 399.7 415.376 399.955 415.529C400.211 415.665 400.355 415.851 400.384 416.1C400.005 416.892 399.682 417.806 399.414 418.859C399.146 419.911 399.01 421.028 399.006 422.225C399.01 423.414 399.221 424.626 399.65 425.838C400.078 427.05 400.8 428.221 401.806 429.339C402.822 430.422 403.877 431.235 404.979 431.755C406.088 432.282 407.198 432.579 408.338 432.641C409.471 432.711 410.588 432.577 411.697 432.262C412.767 431.984 413.806 431.546 414.826 430.964C415.847 430.398 416.841 429.711 417.824 428.932C418.8 428.146 419.778 427.3 420.728 426.392C422.232 424.977 423.593 423.67 424.806 422.471C426.013 421.278 427.104 420.18 428.072 419.167C429.048 418.149 429.925 417.193 430.71 416.31C430.769 416.123 430.753 415.935 430.647 415.743C430.55 415.543 430.407 415.388 430.231 415.261C430.049 415.142 429.864 415.082 429.677 415.099L428.022 416.306C427.507 416.702 427.037 416.941 426.6 417.03C426.164 417.121 425.711 417.037 425.227 416.779C424.737 416.513 424.155 416.056 423.475 415.4C422.797 414.744 421.945 413.87 420.93 412.759L405.426 395.996ZM450.122 384.222L439.722 376.605C439.369 376.334 439.074 376.145 438.839 376.038C438.61 375.921 438.381 375.913 438.178 376.014C437.966 376.109 437.714 376.332 437.439 376.696C437.155 377.053 436.798 377.568 436.352 378.24C435.145 380.039 434.318 381.696 433.867 383.207C433.426 384.724 433.451 386.137 433.944 387.445C434.428 388.747 435.469 389.982 437.065 391.152C438.327 392.063 439.549 392.629 440.733 392.852C441.923 393.065 443.055 393.013 444.124 392.692C445.191 392.369 446.187 391.836 447.093 391.104C448.007 390.38 448.823 389.518 449.527 388.521C449.938 387.954 450.259 387.453 450.488 387.028C450.721 386.595 450.867 386.228 450.932 385.921C451.059 385.619 451.061 385.345 450.961 385.087C450.854 384.837 450.575 384.554 450.122 384.222ZM435.418 373.453L427.836 367.9C427.21 367.428 426.525 366.966 425.776 366.483C425.022 366.01 424.273 365.619 423.522 365.306C422.778 364.997 422.092 364.863 421.47 364.894C420.538 364.974 419.704 365.298 418.993 365.869C418.281 366.439 417.643 367.128 417.094 367.923C416.263 369.077 415.622 370.239 415.182 371.428C414.739 372.603 414.552 373.769 414.596 374.92C414.641 376.069 414.969 377.191 415.591 378.264C416.204 379.331 417.148 380.339 418.423 381.285C419.442 382.045 420.571 382.649 421.819 383.089C423.067 383.53 424.406 383.683 425.806 383.55C427.212 383.409 428.655 382.874 430.135 381.907C431.617 380.954 433.104 379.452 434.591 377.425C435.088 376.735 435.468 376.172 435.716 375.737C435.957 375.294 436.105 374.943 436.146 374.67C436.179 374.406 436.137 374.177 436.003 374C435.875 373.815 435.681 373.632 435.418 373.453ZM430.12 363.102L449.588 377.362C450.836 378.29 451.842 378.959 452.616 379.368C453.391 379.778 454.068 379.906 454.627 379.763C455.196 379.626 455.778 379.199 456.382 378.47L457.728 376.929C457.937 376.873 458.134 376.888 458.339 376.984C458.54 377.066 458.707 377.2 458.825 377.379C458.951 377.549 458.991 377.725 458.969 377.919C458.099 379.398 457.055 381.066 455.814 382.933C454.581 384.805 453.102 386.931 451.377 389.323C450.209 390.981 448.993 392.471 447.723 393.815C446.46 395.152 445.105 396.198 443.689 396.949C442.79 397.436 441.837 397.763 440.834 397.924C439.832 398.083 438.788 398.03 437.711 397.767C436.636 397.505 435.556 396.976 434.455 396.185C433.24 395.281 432.352 394.288 431.803 393.203C431.249 392.126 430.952 390.962 430.894 389.722C430.841 388.474 430.952 387.161 431.234 385.776C430.98 385.603 430.738 385.558 430.497 385.658C430.255 385.757 430.012 385.932 429.757 386.195C429.116 386.814 428.318 387.376 427.347 387.874C426.377 388.387 425.291 388.735 424.09 388.934C422.896 389.125 421.626 389.076 420.288 388.781C418.949 388.484 417.593 387.832 416.214 386.848C414.224 385.391 412.842 383.616 412.076 381.529C411.31 379.443 411.249 377.084 411.885 374.445C412.53 371.814 413.959 368.942 416.176 365.83C416.542 365.322 416.987 364.742 417.509 364.071C418.031 363.401 418.569 362.69 419.141 361.952C419.713 361.214 420.269 360.477 420.797 359.745C421.603 358.627 422.328 357.566 422.976 356.594C423.625 355.623 424.272 354.651 424.924 353.693C425.058 353.635 425.225 353.638 425.423 353.705C425.623 353.772 425.807 353.881 425.974 354.029C426.14 354.177 426.242 354.344 426.278 354.528L425.763 355.57C425.375 356.326 425.135 356.965 425.044 357.491C424.961 358.021 425.055 358.525 425.358 359.01C425.655 359.503 426.18 360.059 426.961 360.697C427.726 361.336 428.781 362.134 430.12 363.102ZM448.677 348.321C446.417 347.457 444.411 346.43 442.676 345.257C440.931 344.08 439.539 342.744 438.48 341.251C437.42 339.758 436.796 338.104 436.582 336.289C436.383 334.467 436.679 332.474 437.49 330.314C438.366 328.043 439.466 326.281 440.799 325.008C442.138 323.747 443.675 322.918 445.421 322.521C447.156 322.122 449.077 322.091 451.168 322.421C453.254 322.761 455.501 323.392 457.881 324.323L470.651 329.266C472.185 329.847 473.413 330.357 474.339 330.772C475.275 331.202 475.948 331.624 476.389 332.044C476.813 332.47 477.053 332.974 477.084 333.543C477.115 334.115 477.005 334.847 476.739 335.724L476.315 337.201C476.358 337.354 476.476 337.48 476.669 337.576C476.857 337.673 477.062 337.729 477.281 337.746C477.503 337.763 477.665 337.723 477.779 337.63C478.107 336.651 478.413 335.756 478.688 334.941C478.968 334.124 479.243 333.332 479.523 332.573C479.798 331.824 480.086 331.036 480.392 330.232C480.689 329.447 480.995 328.675 481.293 327.925C481.59 327.173 481.909 326.396 482.254 325.583C482.595 324.77 482.971 323.878 483.382 322.91C483.36 322.763 483.268 322.625 483.093 322.488C482.918 322.353 482.726 322.256 482.525 322.201C482.32 322.144 482.145 322.156 482.009 322.241L481.323 323.685C480.939 324.517 480.537 325.135 480.134 325.538C479.732 325.941 479.221 326.154 478.622 326.183C478.015 326.2 477.233 326.057 476.254 325.747C475.288 325.43 474.038 324.98 472.513 324.379L458.562 318.98C456.225 318.076 454.101 317.447 452.199 317.1C450.297 316.75 448.587 316.669 447.045 316.859C445.499 317.059 444.096 317.507 442.838 318.229C441.645 318.895 440.579 319.737 439.638 320.752C438.709 321.771 437.893 322.903 437.189 324.158C436.471 325.418 435.859 326.731 435.343 328.116C434.779 329.597 434.395 331.111 434.192 332.651C433.989 334.192 433.973 335.689 434.152 337.15C434.331 338.608 434.726 339.947 435.323 341.169C436.095 342.733 437.14 344.117 438.446 345.318C439.753 346.519 441.207 347.572 442.831 348.474C444.454 349.376 446.137 350.152 447.866 350.81L454.546 353.395C455.216 353.654 456.004 353.959 456.877 354.308C457.763 354.651 458.68 355.029 459.642 355.423C460.595 355.826 461.517 356.229 462.408 356.643C463.291 357.053 464.082 357.449 464.759 357.837C465.437 358.224 465.948 358.571 466.289 358.896C466.613 359.237 466.792 359.716 466.84 360.328C466.888 360.95 466.8 361.648 466.573 362.425L466.145 363.901C466.237 364.05 466.359 364.177 466.529 364.289C466.691 364.397 466.884 364.46 467.071 364.474C467.264 364.494 467.452 364.453 467.609 364.331C467.841 363.609 468.068 362.924 468.282 362.276C468.496 361.62 468.728 360.956 468.973 360.276C469.226 359.588 469.501 358.828 469.816 358.004C470.253 356.852 470.699 355.714 471.166 354.607C471.625 353.496 472.089 352.389 472.582 351.278C472.547 351.129 472.456 350.99 472.298 350.862C472.154 350.737 471.984 350.649 471.787 350.596C471.595 350.544 471.402 350.549 471.206 350.61L470.52 352.055C470.174 352.787 469.807 353.363 469.405 353.8C469.008 354.226 468.579 354.483 468.147 354.554C467.705 354.612 467.111 354.574 466.355 354.443C465.594 354.308 464.755 354.108 463.807 353.833C462.867 353.572 461.897 353.265 460.896 352.924C459.895 352.592 458.925 352.252 457.999 351.904C457.063 351.564 456.225 351.241 455.475 350.951L448.677 348.321ZM455.731 302.964C457.208 303.216 458.589 303.234 459.882 303.009C461.163 302.784 462.36 302.391 463.457 301.819C464.563 301.249 465.572 300.564 466.503 299.768C467.447 298.974 468.3 298.132 469.082 297.233L473.076 292.758C473.544 292.236 474.077 291.704 474.693 291.176C475.301 290.647 475.974 290.172 476.712 289.752C477.451 289.332 478.242 289.03 479.068 288.832C479.907 288.646 480.777 288.628 481.682 288.777C482.411 288.897 483.163 289.137 483.928 289.49C484.68 289.839 485.361 290.35 485.978 291.01C486.576 291.679 487.018 292.545 487.28 293.598C487.547 294.66 487.555 295.958 487.297 297.49C487.027 298.987 486.576 300.203 485.96 301.142C485.34 302.068 484.623 302.794 483.806 303.297C482.988 303.801 482.145 304.159 481.271 304.38C480.384 304.592 479.549 304.723 478.753 304.787C478.609 304.88 478.517 305.037 478.469 305.245C478.421 305.453 478.417 305.667 478.443 305.888C478.478 306.111 478.557 306.275 478.666 306.392C479.33 306.511 480.034 306.603 480.773 306.67C481.502 306.733 482.232 306.778 482.958 306.788C483.674 306.807 484.339 306.806 484.946 306.774C485.562 306.743 486.065 306.691 486.471 306.614C486.52 306.351 486.607 306.032 486.738 305.645C486.869 305.268 487.035 304.876 487.232 304.48C487.472 303.96 487.713 303.377 487.953 302.738C488.193 302.111 488.403 301.457 488.6 300.779C488.792 300.099 488.95 299.436 489.068 298.776C489.413 296.731 489.452 294.859 489.177 293.177C488.906 291.488 488.368 290.009 487.586 288.746C486.799 287.472 485.798 286.441 484.61 285.647C483.412 284.849 482.079 284.31 480.585 284.044C479.3 283.827 478.08 283.826 476.931 284.032C475.777 284.238 474.698 284.597 473.688 285.109C472.679 285.61 471.752 286.191 470.913 286.863C470.069 287.534 469.327 288.224 468.667 288.927L463.759 294.212C462.819 295.224 461.923 296.004 461.062 296.564C460.192 297.123 459.366 297.505 458.567 297.72C457.767 297.945 456.999 298.046 456.261 298.033C455.524 298.022 454.807 297.948 454.124 297.817C453.178 297.648 452.311 297.332 451.506 296.854C450.711 296.377 450.027 295.748 449.475 294.981C448.913 294.211 448.526 293.299 448.314 292.246C448.101 291.192 448.105 290.005 448.327 288.682C448.592 287.228 449.033 285.988 449.662 284.966C450.28 283.941 451.009 283.088 451.855 282.417C452.69 281.744 453.567 281.209 454.493 280.811C455.42 280.414 456.318 280.121 457.19 279.918C458.047 279.726 458.833 279.595 459.511 279.521C459.651 279.448 459.747 279.325 459.803 279.129C459.86 278.934 459.865 278.73 459.825 278.507C459.799 278.297 459.712 278.12 459.585 277.979C458.833 277.877 458.02 277.808 457.138 277.76C456.266 277.723 455.392 277.698 454.531 277.717C453.662 277.725 452.884 277.76 452.185 277.83C451.487 277.9 450.945 277.998 450.558 278.124C450.24 278.478 449.826 279.063 449.323 279.86C448.817 280.666 448.302 281.71 447.792 282.98C447.279 284.25 446.864 285.764 446.536 287.522C446.078 290.26 446.153 292.714 446.759 294.886C447.376 297.06 448.447 298.838 449.981 300.234C451.517 301.631 453.436 302.545 455.731 302.964ZM475.738 264.125C476.341 264.103 477.088 264.077 477.997 264.045C478.902 264.013 479.885 263.979 480.93 263.963C481.988 263.948 483.019 263.953 484.046 263.982C485.073 264.009 486.004 264.072 486.843 264.18C487.678 264.279 488.338 264.427 488.81 264.622C489.081 264.752 489.334 265.115 489.588 265.714C489.841 266.322 490.068 267.134 490.265 268.149L490.422 269.038C490.562 269.16 490.733 269.239 490.934 269.274C491.148 269.299 491.349 269.281 491.545 269.221C491.742 269.151 491.886 269.028 492 268.854C491.93 268.143 491.878 267.463 491.821 266.806C491.768 266.147 491.72 265.457 491.685 264.734C491.65 264.012 491.611 263.193 491.58 262.289C491.554 261.492 491.537 260.693 491.519 259.917C491.502 259.13 491.493 258.321 491.497 257.48C491.502 256.639 491.502 255.734 491.511 254.754C491.432 254.586 491.288 254.474 491.087 254.407C490.886 254.35 490.671 254.337 490.453 254.387C490.23 254.426 490.055 254.529 489.924 254.682L489.832 255.771C489.758 256.625 489.666 257.321 489.57 257.857C489.461 258.404 489.338 258.823 489.203 259.125C489.054 259.429 488.893 259.648 488.705 259.771C488.325 260.03 487.73 260.253 486.922 260.431C486.113 260.618 485.204 260.778 484.16 260.911C483.128 261.033 482.079 261.144 480.995 261.224C479.92 261.305 478.906 261.362 477.971 261.417C477.031 261.46 476.262 261.487 475.65 261.509L462.107 261.985C461.429 262.02 460.861 262.03 460.393 262.014C459.93 262.008 459.611 261.945 459.441 261.824L459.432 261.696C460.411 260.672 461.451 259.602 462.566 258.499C463.68 257.395 464.895 256.213 466.202 254.942C467.522 253.672 468.959 252.279 470.524 250.766L477.206 244.335C477.678 243.881 478.334 243.251 479.182 242.444C480.03 241.638 480.978 240.741 482.044 239.778C483.098 238.804 484.177 237.85 485.265 236.918C486.362 235.985 487.389 235.15 488.346 234.446C489.303 233.731 490.099 233.223 490.754 232.934C490.676 232.511 490.619 232.056 490.567 231.546C490.51 231.036 490.479 230.527 490.462 230.007C490.453 229.708 490.44 229.304 490.418 228.773C490.414 228.24 490.392 227.645 490.379 226.975C490.366 226.305 490.366 225.613 490.37 224.889C490.366 224.175 490.383 223.472 490.4 222.79C490.3 222.623 490.16 222.511 489.959 222.465C489.754 222.408 489.544 222.405 489.334 222.455C489.116 222.495 488.949 222.585 488.814 222.718L488.727 223.807C488.67 224.586 488.526 225.337 488.307 226.047C488.089 226.747 487.774 227.343 487.346 227.817C486.874 228.27 486.41 228.605 485.943 228.824C485.475 229.042 484.986 229.188 484.479 229.259C483.976 229.329 483.43 229.37 482.835 229.38L464.545 230.024C463.925 230.046 463.156 230.073 462.247 230.106C461.329 230.137 460.35 230.161 459.305 230.177C458.256 230.192 457.221 230.186 456.198 230.169C455.183 230.141 454.262 230.099 453.435 230.011C452.609 229.933 451.95 229.818 451.479 229.654C451.127 229.506 450.841 229.186 450.623 228.714C450.406 228.233 450.237 227.632 450.117 226.891L449.867 225.175C449.726 225.052 449.555 224.984 449.353 224.959C449.141 224.935 448.94 224.952 448.743 225.023C448.545 225.094 448.4 225.205 448.289 225.358C448.358 226.09 448.413 226.802 448.468 227.471C448.523 228.15 448.569 228.852 448.605 229.574C448.641 230.296 448.679 231.105 448.71 231.987C448.75 233.157 448.77 234.338 448.779 235.53C448.799 236.732 448.792 238.042 448.778 239.459C448.954 239.675 449.201 239.795 449.508 239.805C449.815 239.827 450.107 239.731 450.365 239.53L450.485 237.546C450.521 236.735 450.623 236.04 450.804 235.447C450.974 234.866 451.234 234.464 451.575 234.249C451.958 234.023 452.553 233.821 453.36 233.654C454.167 233.477 455.081 233.338 456.123 233.216C457.155 233.095 458.208 232.994 459.292 232.924C460.367 232.844 461.377 232.776 462.316 232.732C463.256 232.688 464.025 232.662 464.637 232.64L478.434 232.154C479.391 232.12 480.217 232.112 480.926 232.13C481.62 232.148 482.175 232.214 482.56 232.329V232.456C482.285 232.743 481.887 233.129 481.367 233.616C480.847 234.103 480.261 234.655 479.619 235.253C478.963 235.851 478.299 236.461 477.635 237.069C476.957 237.689 476.324 238.265 475.738 238.807C475.157 239.339 474.663 239.793 474.274 240.158L458.082 255.547C456.565 256.986 455.278 258.202 454.213 259.197C453.149 260.193 452.27 261.022 451.564 261.664C450.857 262.307 450.284 262.816 449.842 263.194C449.412 263.571 449.063 263.861 448.806 264.051C448.829 264.401 448.901 264.675 449.044 264.862C449.178 265.059 449.351 265.182 449.544 265.238C449.89 265.184 450.417 265.144 451.144 265.086C451.86 265.04 452.682 264.989 453.6 264.947C454.517 264.904 455.445 264.86 456.373 264.817C457.299 264.784 458.134 264.744 458.894 264.718C459.642 264.691 460.223 264.671 460.612 264.657L475.738 264.125ZM453.221 206.618C451.599 207.006 450.285 207.28 449.276 207.46C448.274 207.627 447.48 207.659 446.889 207.545C446.311 207.429 445.845 207.144 445.49 206.681C445.145 206.214 444.816 205.538 444.516 204.648L443.973 203.135C443.812 203.042 443.62 203.011 443.4 203.04C443.179 203.07 442.978 203.138 442.797 203.246C442.616 203.353 442.503 203.477 442.459 203.619C442.735 204.636 442.983 205.571 443.211 206.425C443.441 207.289 443.651 208.113 443.847 208.92C444.043 209.726 444.243 210.553 444.44 211.413C444.627 212.232 444.802 213.043 444.973 213.834C445.143 214.624 445.31 215.448 445.476 216.316C445.642 217.183 445.828 218.134 446.021 219.17C446.121 219.278 446.287 219.337 446.517 219.349C446.738 219.364 446.957 219.333 447.168 219.263C447.39 219.19 447.528 219.081 447.592 218.935L447.421 217.337C447.305 216.404 447.306 215.649 447.412 215.078C447.531 214.506 447.826 214.043 448.295 213.682C448.776 213.32 449.504 212.998 450.477 212.706C451.462 212.422 452.762 212.086 454.389 211.719L476.354 206.606C477.98 206.217 479.3 205.942 480.322 205.76C481.354 205.585 482.158 205.551 482.757 205.662C483.369 205.771 483.832 206.056 484.19 206.52C484.535 206.985 484.85 207.664 485.121 208.562L485.602 210.089C485.724 210.192 485.895 210.228 486.126 210.197C486.345 210.167 486.559 210.096 486.76 209.984C486.948 209.873 487.07 209.747 487.118 209.605C486.839 208.588 486.594 207.652 486.367 206.799C486.139 205.946 485.93 205.131 485.737 204.346C485.549 203.561 485.353 202.754 485.165 201.935C484.968 201.074 484.789 200.243 484.614 199.433C484.439 198.62 484.269 197.787 484.098 196.909C483.932 196.041 483.749 195.091 483.556 194.054C483.456 193.946 483.29 193.887 483.067 193.872C482.84 193.86 482.617 193.89 482.407 193.961C482.184 194.035 482.049 194.143 481.983 194.29L482.215 195.872C482.363 196.799 482.372 197.551 482.267 198.121C482.149 198.695 481.852 199.157 481.354 199.524C480.86 199.89 480.126 200.214 479.121 200.514C478.124 200.8 476.813 201.137 475.187 201.506L453.221 206.618ZM445.303 133.11L436.01 146.625C435.061 147.995 434.125 149.345 433.199 150.688C432.283 152.028 431.39 153.366 430.539 154.717L430.601 154.829C432.326 154.851 434.082 154.818 435.879 154.75C437.671 154.674 439.468 154.583 441.273 154.487L454.738 153.823C456.875 153.737 458.75 153.637 460.376 153.544C461.997 153.441 463.413 153.294 464.615 153.086C465.813 152.877 466.844 152.557 467.705 152.125C468.151 153.105 468.527 153.927 468.872 154.599C469.213 155.26 469.545 155.865 469.842 156.405C470.231 157.112 470.677 157.898 471.188 158.743C471.687 159.584 472.207 160.438 472.74 161.282C472.718 161.439 472.622 161.592 472.46 161.732C472.285 161.878 472.106 161.99 471.896 162.07C471.695 162.146 471.52 162.158 471.389 162.111L470.633 161.001C470.074 160.167 469.554 159.546 469.06 159.129C468.566 158.713 468.055 158.487 467.517 158.434C466.988 158.39 466.372 158.502 465.682 158.779C465 159.051 464.178 159.472 463.221 160.032C462.05 160.711 460.734 161.482 459.262 162.331C457.793 163.175 456.229 164.085 454.573 165.046C452.918 166.008 451.225 166.99 449.497 168.017C447.764 169.034 446.044 170.055 444.345 171.09C442.646 172.125 441.025 173.128 439.464 174.11C438.792 174.534 438.204 174.911 437.699 175.266C437.195 175.621 436.799 175.977 436.506 176.346C436.224 176.711 436.072 177.136 436.06 177.618C436.042 178.09 436.18 178.67 436.483 179.352L437.299 181.232C437.241 181.411 437.129 181.559 436.95 181.695C436.781 181.825 436.6 181.915 436.394 181.956C436.188 181.999 436.007 181.978 435.853 181.894C435.279 180.719 434.701 179.557 434.105 178.431C433.519 177.299 432.953 176.227 432.396 175.212C432.037 174.561 431.64 173.86 431.216 173.111C430.798 172.371 430.354 171.609 429.892 170.834C429.43 170.058 428.976 169.302 428.515 168.549C428.545 168.363 428.624 168.197 428.768 168.044C428.917 167.899 429.082 167.782 429.283 167.708C429.473 167.637 429.657 167.62 429.838 167.664L430.895 169.19C431.334 169.834 431.745 170.297 432.116 170.577C432.501 170.86 432.908 170.986 433.337 170.953C433.77 170.929 434.297 170.768 434.889 170.487C435.486 170.19 436.235 169.795 437.107 169.296L460.114 156.222L460.048 156.111C459.873 156.099 459.541 156.104 459.043 156.125C458.549 156.147 457.955 156.163 457.251 156.202C456.559 156.236 455.828 156.267 455.056 156.31C454.283 156.352 453.529 156.385 452.802 156.425C452.071 156.457 451.425 156.489 450.855 156.505L438.429 156.952C436.853 157.005 435.298 157.071 433.732 157.143C432.18 157.219 430.691 157.297 429.277 157.382C427.859 157.48 426.568 157.57 425.406 157.672C424.243 157.774 423.274 157.878 422.485 157.977C422.371 157.969 422.269 157.916 422.182 157.843C422.097 157.757 422.017 157.655 421.956 157.543C421.921 157.478 421.893 157.384 421.864 157.266C421.845 157.143 421.854 157.028 421.902 156.917C422.516 156.257 423.191 155.443 423.945 154.486C424.697 153.53 425.462 152.507 426.244 151.449C427.022 150.382 427.757 149.35 428.457 148.363C429.162 147.385 429.764 146.526 430.278 145.813L438.204 134.814C439.174 133.506 440.181 132.177 441.22 130.818C442.273 129.463 443.269 128.116 444.215 126.784L444.153 126.673C442.384 127.515 440.657 128.346 438.977 129.176C437.302 129.991 435.639 130.81 433.988 131.624C432.821 132.202 431.511 132.849 430.06 133.588C428.617 134.321 427.09 135.101 425.509 135.935C423.914 136.765 422.335 137.625 420.756 138.506C419.742 139.073 418.916 139.571 418.292 139.992C417.672 140.424 417.222 140.834 416.944 141.208C416.672 141.591 416.543 141.992 416.561 142.42C416.589 142.842 416.727 143.337 416.987 143.897L417.988 146.112C417.939 146.309 417.828 146.48 417.649 146.617C417.476 146.762 417.287 146.856 417.085 146.908C416.879 146.949 416.709 146.924 416.572 146.83C416.101 145.84 415.594 144.809 415.034 143.747C414.484 142.681 413.919 141.609 413.33 140.539C412.834 139.637 412.303 138.715 411.744 137.764C411.188 136.797 410.615 135.864 410.032 134.936C410.073 134.768 410.165 134.607 410.319 134.448C410.465 134.294 410.639 134.173 410.823 134.093C411.018 134.009 411.193 133.997 411.356 134.051L412.197 135.186C412.594 135.732 412.966 136.168 413.316 136.497C413.67 136.834 414.067 137.05 414.505 137.145C414.944 137.241 415.496 137.212 416.15 137.041C416.809 136.879 417.636 136.564 418.643 136.11C419.593 135.689 420.534 135.272 421.452 134.856C422.371 134.441 423.322 134.019 424.313 133.562C425.296 133.111 426.366 132.622 427.516 132.077C428.663 131.533 429.937 130.93 431.35 130.25C432.943 129.483 434.512 128.715 436.062 127.958C437.609 127.191 439.062 126.477 440.422 125.79C441.786 125.113 442.994 124.498 444.039 123.963C445.223 123.375 446.088 122.818 446.638 122.304C447.193 121.775 447.469 121.159 447.472 120.439C447.469 119.71 447.23 118.749 446.745 117.56L446.365 116.605C446.434 116.445 446.551 116.307 446.734 116.179C446.909 116.058 447.109 115.983 447.32 115.949C447.531 115.917 447.708 115.952 447.872 116.055C448.273 116.914 448.66 117.706 449.022 118.43C449.379 119.167 449.753 119.87 450.132 120.559C450.485 121.201 450.868 121.899 451.312 122.661C451.75 123.413 452.256 124.225 452.847 125.1C452.081 125.442 451.286 125.995 450.456 126.789C449.62 127.572 448.771 128.509 447.901 129.603C447.039 130.693 446.173 131.858 445.303 133.11ZM413.77 113.3C412.097 115.06 410.377 116.521 408.628 117.672C406.872 118.832 405.108 119.6 403.33 120C401.554 120.401 399.798 120.333 398.057 119.822C396.317 119.297 394.612 118.242 392.956 116.647C391.226 114.947 390.047 113.236 389.404 111.502C388.777 109.767 388.621 108.017 388.94 106.243C389.253 104.476 389.976 102.681 391.094 100.87C392.219 99.067 393.673 97.2275 395.455 95.3828L404.957 85.4638C406.086 84.2698 407.033 83.3275 407.774 82.6296C408.532 81.9321 409.179 81.4693 409.735 81.2258C410.292 80.9977 410.844 80.9728 411.377 81.1668C411.911 81.3609 412.537 81.7485 413.233 82.3381L414.415 83.3105C414.571 83.3306 414.734 83.2668 414.897 83.1291C415.059 82.991 415.189 82.8228 415.291 82.6252C415.392 82.4286 415.419 82.2616 415.38 82.1196C414.614 81.4334 413.916 80.7984 413.28 80.2228C412.642 79.6468 412.027 79.0782 411.443 78.5249C410.866 77.9778 410.259 77.4013 409.645 76.803C409.044 76.2191 408.46 75.6353 407.89 75.0658C407.32 74.4963 406.735 73.8972 406.127 73.2604C405.519 72.6236 404.85 71.9283 404.128 71.1661C403.985 71.1316 403.822 71.1639 403.629 71.2728C403.437 71.3816 403.275 71.5197 403.144 71.6871C403.012 71.8558 402.955 72.0218 402.98 72.1792L404.032 73.3801C404.64 74.061 405.047 74.679 405.258 75.2096C405.468 75.7397 405.463 76.2965 405.256 76.8651C405.034 77.4328 404.598 78.1028 403.933 78.8899C403.266 79.6621 402.366 80.6476 401.221 81.8268L390.84 92.6648C389.103 94.479 387.699 96.2044 386.637 97.8332C385.576 99.4616 384.834 101.017 384.405 102.523C383.982 104.034 383.844 105.512 384.011 106.962C384.155 108.329 384.506 109.647 385.065 110.916C385.633 112.178 386.347 113.376 387.217 114.52C388.089 115.679 389.047 116.761 390.11 117.78C391.242 118.881 392.474 119.83 393.802 120.62C395.13 121.409 396.491 122.01 397.894 122.414C399.296 122.818 400.672 122.974 402.023 122.898C403.752 122.792 405.424 122.364 407.031 121.621C408.639 120.878 410.167 119.941 411.625 118.786C413.083 117.631 414.449 116.373 415.725 115.027L420.697 109.838C421.195 109.317 421.782 108.705 422.441 108.031C423.102 107.342 423.806 106.637 424.539 105.902C425.281 105.174 426.008 104.477 426.735 103.809C427.456 103.149 428.124 102.574 428.742 102.096C429.363 101.619 429.878 101.278 430.309 101.09C430.745 100.925 431.254 100.945 431.831 101.139C432.417 101.339 433.021 101.689 433.642 102.205L434.823 103.178C434.993 103.152 435.157 103.089 435.327 102.973C435.489 102.865 435.622 102.713 435.708 102.545C435.802 102.371 435.836 102.182 435.788 101.987C435.219 101.493 434.68 101.014 434.173 100.563C433.658 100.106 433.142 99.633 432.618 99.1382C432.087 98.6361 431.503 98.0819 430.873 97.4683C429.992 96.6113 429.126 95.7529 428.297 94.8876C427.461 94.0293 426.632 93.1639 425.811 92.275C425.661 92.2479 425.498 92.2807 425.32 92.3738C425.15 92.4599 425.003 92.5831 424.879 92.7435C424.754 92.9035 424.684 93.0857 424.664 93.288L425.715 94.489C426.248 95.0969 426.631 95.6612 426.872 96.207C427.105 96.745 427.174 97.2402 427.069 97.6711C426.95 98.1025 426.683 98.6404 426.268 99.2881C425.847 99.9428 425.337 100.643 424.716 101.414C424.109 102.185 423.451 102.964 422.748 103.759C422.053 104.561 421.364 105.326 420.683 106.053C420.008 106.787 419.385 107.438 418.829 108.019L413.77 113.3ZM369.436 53.0741L362.027 66.0113C361.743 66.5086 361.515 66.9054 361.359 67.2201C361.203 67.5343 361.127 67.7734 361.147 67.9316C361.161 68.0133 361.281 68.1444 361.492 68.3293C361.718 68.5098 362.08 68.7703 362.609 69.102C363.123 69.4385 363.849 69.8734 364.772 70.4105C365.425 70.8029 366.113 71.1543 366.823 71.4694C367.523 71.7784 368.252 72.0175 368.994 72.1674C369.724 72.3212 370.488 72.3487 371.245 72.2609C371.964 72.1757 372.7 71.9528 373.45 71.6031C374.198 71.2522 374.949 70.7077 375.704 69.966C376.46 69.2392 377.191 68.2397 377.913 67.0016C378.547 65.8959 378.983 64.7491 379.217 63.5336C379.449 62.3181 379.442 61.0966 379.188 59.8803C378.934 58.6639 378.385 57.4961 377.542 56.3912C376.705 55.2778 375.526 54.2717 374.015 53.3805C373.174 52.8903 372.496 52.5208 371.99 52.2757C371.48 52.0399 371.075 51.9148 370.778 51.902C370.49 51.8935 370.244 51.9837 370.051 52.1915C369.85 52.394 369.648 52.6817 369.436 53.0741ZM350.691 75.3363L362.058 55.4881C362.817 54.185 363.396 53.109 363.82 52.2629C364.243 51.416 364.507 50.7214 364.616 50.1707C364.719 49.6285 364.666 49.168 364.453 48.773C364.241 48.3798 363.876 47.995 363.349 47.6154L361.721 46.3727C361.651 46.1964 361.653 46.0015 361.713 45.7904C361.781 45.5845 361.887 45.4006 362.048 45.2482C362.2 45.0899 362.374 45.0201 362.568 45.0226C363.635 45.5206 364.798 46.0867 366.05 46.7301C367.294 47.3677 368.655 48.098 370.138 48.9126C371.63 49.7323 373.268 50.661 375.051 51.6977C376.19 52.348 377.278 53.0435 378.31 53.7542C379.335 54.4744 380.279 55.2319 381.114 56.0499C381.965 56.8645 382.682 57.737 383.26 58.6869C383.882 59.6641 384.336 60.7025 384.601 61.8142C384.875 62.9319 384.92 64.0887 384.742 65.3124C384.571 66.5274 384.108 67.7821 383.379 69.0766C382.611 70.3738 381.713 71.4113 380.688 72.1792C379.664 72.9462 378.575 73.5056 377.448 73.857C376.311 74.2026 375.213 74.3984 374.135 74.4478C373.06 74.4972 372.097 74.4531 371.236 74.3202C371.007 74.4203 370.873 74.6121 370.819 74.8997C370.749 75.1917 370.735 75.4906 370.75 75.8061C370.848 79.0201 370.974 81.8827 371.127 84.404C371.294 86.9222 371.546 89.2057 371.892 91.2392C372.226 93.2754 372.722 95.1743 373.351 96.9286C373.583 97.6283 373.945 98.2939 374.445 98.9538C374.937 99.608 375.535 100.178 376.248 100.679C376.349 100.823 376.362 100.99 376.285 101.167C376.205 101.33 376.065 101.444 375.86 101.484C375.566 101.424 375.19 101.292 374.748 101.107C374.301 100.909 373.819 100.665 373.289 100.356C372.122 99.6906 371.12 98.9717 370.273 98.196C369.425 97.4198 368.699 96.5182 368.126 95.4968C367.544 94.4702 367.072 93.2496 366.712 91.8358C366.356 90.4128 366.098 88.7385 365.926 86.7832C365.864 86.0599 365.811 85.2169 365.768 84.2715C365.716 83.3188 365.681 82.3162 365.634 81.2691C365.597 80.2281 365.56 79.1862 365.504 78.1578C365.456 77.1347 365.403 76.1833 365.332 75.3066C365.298 74.7472 365.196 74.245 365.021 73.7861C364.84 73.3369 364.549 72.9086 364.147 72.5034C363.741 72.1071 363.174 71.6914 362.451 71.271C361.652 70.7942 361.048 70.4664 360.655 70.2999C360.264 70.133 359.963 70.1059 359.771 70.2274C359.58 70.3493 359.375 70.5993 359.177 70.9874L355.188 77.9537C354.355 79.3855 353.718 80.5628 353.267 81.4548C352.821 82.363 352.569 83.1012 352.506 83.678C352.453 84.2611 352.591 84.7846 352.923 85.2483C353.255 85.7116 353.793 86.2207 354.521 86.7788L355.577 87.6158C355.629 87.781 355.608 87.9654 355.516 88.1699C355.422 88.3731 355.294 88.5563 355.133 88.7088C354.973 88.8617 354.822 88.9334 354.675 88.9343C353.883 88.4234 353.131 87.9492 352.425 87.5017C351.728 87.0581 351.034 86.6307 350.355 86.2225C349.674 85.8147 348.967 85.3899 348.245 84.9695C347.485 84.5276 346.731 84.1011 346.003 83.6898C345.277 83.279 344.525 82.8669 343.76 82.4583C342.986 82.044 342.165 81.6039 341.294 81.1459C341.221 81.0174 341.202 80.8587 341.247 80.652C341.288 80.4536 341.37 80.2683 341.499 80.0852C341.628 79.902 341.787 79.7736 341.975 79.6997L343.443 80.3321C344.275 80.7066 344.982 80.9212 345.54 80.9872C346.104 81.0462 346.623 80.9059 347.098 80.5668C347.568 80.2137 348.081 79.6162 348.637 78.7727C349.183 77.924 349.877 76.779 350.691 75.3363ZM315.476 70.0268C313.513 69.3336 311.859 68.422 310.492 67.2953C309.138 66.1612 308.039 64.8684 307.195 63.4162C306.359 61.9785 305.749 60.4276 305.362 58.7848C304.974 57.142 304.766 55.4617 304.76 53.7483C304.748 52.0221 304.887 50.3375 305.171 48.6581C305.46 46.9923 305.866 45.4116 306.378 43.9127C307.288 41.2799 308.374 39.0804 309.624 37.3193C310.87 35.5684 312.225 34.1818 313.677 33.1672C315.128 32.1517 316.621 31.4435 318.139 31.0477C319.659 30.6527 321.144 30.4919 322.597 30.5804C324.055 30.6596 325.414 30.9285 326.668 31.3754C328.951 32.1781 330.828 33.2804 332.296 34.6678C333.766 36.0553 334.898 37.6411 335.668 39.4396C336.438 41.2365 336.913 43.1457 337.097 45.1903C337.274 47.2213 337.215 49.2931 336.896 51.3998C336.591 53.4997 336.101 55.5579 335.404 57.5667C334.584 59.9373 333.608 61.9725 332.461 63.6681C331.322 65.3653 330.07 66.7429 328.702 67.8092C327.342 68.8791 325.917 69.6562 324.423 70.1391C322.936 70.636 321.428 70.8667 319.924 70.8283C318.405 70.7959 316.922 70.5289 315.476 70.0268ZM314.058 71.6276C316.387 72.4243 318.699 72.8448 321.002 72.9011C323.318 72.9514 325.543 72.6433 327.696 71.9952C329.848 71.3466 331.858 70.3681 333.716 69.0766C335.568 67.7734 337.209 66.1708 338.635 64.281C340.053 62.3871 341.186 60.214 342.031 57.7736C342.763 55.6303 343.192 53.4614 343.334 51.2483C343.461 49.042 343.275 46.874 342.755 44.7349C342.243 42.6104 341.381 40.5896 340.175 38.6965C338.958 36.8001 337.377 35.0917 335.412 33.5885C333.451 32.0751 331.086 30.8264 328.325 29.8568C325.224 28.8039 322.196 28.3596 319.236 28.5248C316.274 28.7009 313.516 29.421 310.954 30.6808C308.381 31.9372 306.135 33.6779 304.204 35.8995C302.276 38.1109 300.788 40.7343 299.73 43.7654C298.985 45.9487 298.586 48.1619 298.518 50.3895C298.456 52.6298 298.728 54.8055 299.338 56.942C299.952 59.0674 300.908 61.0762 302.207 62.9565C303.496 64.8334 305.133 66.5152 307.104 67.998C309.085 69.4853 311.397 70.6924 314.058 71.6276ZM276.707 53.0324C276.514 54.7024 276.319 56.0405 276.141 57.0577C275.955 58.0638 275.713 58.8274 275.406 59.3466C275.099 59.8556 274.674 60.1995 274.121 60.3774C273.568 60.5451 272.826 60.6243 271.892 60.6055L270.298 60.6004C270.155 60.723 270.059 60.8932 270.011 61.1128C269.963 61.3316 269.959 61.5452 269.997 61.7538C270.036 61.9623 270.113 62.1113 270.23 62.2006C271.272 62.2866 272.229 62.3735 273.103 62.4492C273.987 62.5267 274.828 62.6084 275.646 62.6994C276.464 62.7897 277.304 62.8833 278.173 62.9914C279 63.0936 279.816 63.205 280.611 63.314C281.406 63.423 282.232 63.5464 283.097 63.686C283.963 63.8256 284.912 63.9747 285.944 64.1455C286.079 64.0879 286.191 63.9515 286.281 63.7369C286.37 63.5336 286.418 63.314 286.423 63.0901C286.431 62.8552 286.377 62.6875 286.263 62.5769L284.714 62.193C283.804 61.9836 283.102 61.7248 282.607 61.4277C282.112 61.1196 281.783 60.6829 281.607 60.1144C281.433 59.5356 281.382 58.7354 281.442 57.714C281.515 56.6832 281.647 55.3383 281.86 53.6708L284.608 31.1132C284.8 29.4432 284.997 28.0949 285.175 27.0666C285.365 26.029 285.609 25.2553 285.917 24.7259C286.228 24.1853 286.653 23.8406 287.206 23.6627C287.758 23.495 288.499 23.4269 289.43 23.4771L291.017 23.5452C291.154 23.4652 291.246 23.3163 291.296 23.0864C291.344 22.8668 291.349 22.643 291.314 22.4131C291.277 22.1944 291.202 22.0344 291.084 21.945C290.042 21.859 289.085 21.773 288.212 21.6964C287.338 21.6215 286.508 21.5398 285.711 21.4513C284.913 21.3636 284.094 21.2734 283.267 21.1704C282.397 21.0631 281.561 20.9491 280.745 20.8376C279.928 20.7252 279.093 20.6009 278.218 20.4596C277.351 20.3209 276.401 20.1711 275.37 20C275.235 20.0587 275.123 20.1949 275.034 20.3984C274.945 20.612 274.897 20.8316 274.89 21.0555C274.883 21.2904 274.937 21.4581 275.051 21.5688L276.607 21.8897C277.521 22.0676 278.225 22.3153 278.72 22.6123C279.215 22.9205 279.545 23.358 279.716 23.9581C279.889 24.5479 279.94 25.3574 279.875 26.4112C279.801 27.4522 279.667 28.8073 279.454 30.4748L276.707 53.0324ZM227.572 29.0474C227.413 27.6199 227.339 26.504 227.349 25.6903C227.349 24.8765 227.467 24.3726 227.699 24.1555C227.93 23.9274 228.538 23.6602 229.547 23.3605C230.557 23.0711 231.984 22.8132 233.841 22.6064C236.582 22.3263 239.018 22.3782 241.137 22.7528C243.255 23.1171 245.093 23.7461 246.669 24.6058C248.233 25.4672 249.561 26.4929 250.659 27.671C251.749 28.861 252.645 30.1241 253.328 31.475C254.02 32.825 254.553 34.1699 254.916 35.5114C255.289 36.852 255.528 38.1211 255.639 39.2966C255.948 42.2597 255.883 44.9945 255.432 47.4928C254.993 49.9996 254.13 52.1982 252.876 54.1185C251.611 56.0278 249.915 57.5778 247.789 58.7652C245.651 59.9441 243.068 60.7102 240.013 61.0439C238.042 61.2643 236.406 61.2558 235.116 60.9962C233.816 60.7383 232.78 60.1629 231.995 59.2623C231.394 58.5771 230.961 57.6808 230.678 56.5989C230.395 55.5162 230.177 54.1373 230.014 52.4749L227.572 29.0474ZM225.002 54.482C225.185 56.1316 225.292 57.4688 225.343 58.469C225.386 59.4811 225.318 60.2582 225.143 60.8124C224.956 61.3665 224.618 61.7878 224.128 62.0747C223.638 62.3624 222.942 62.6067 222.051 62.8186L220.622 63.1634C220.511 63.314 220.455 63.5013 220.458 63.726C220.461 63.9506 220.503 64.16 220.588 64.354C220.671 64.5489 220.781 64.677 220.914 64.7373C221.886 64.5909 222.806 64.4615 223.674 64.3378C224.531 64.2146 225.379 64.1032 226.207 64.0053C227.035 63.9065 227.895 63.8051 228.766 63.7124C229.513 63.6443 230.431 63.5898 231.53 63.5481C232.62 63.5183 233.815 63.4766 235.104 63.4255C236.403 63.3634 237.73 63.2655 239.085 63.1327C240.712 62.9599 242.34 62.6918 243.957 62.3172C245.584 61.941 247.145 61.444 248.662 60.8336C250.18 60.2242 251.577 59.4768 252.875 58.5907C255.13 57.0143 256.977 55.1817 258.414 53.0818C259.852 50.9929 260.867 48.7143 261.459 46.2543C262.05 43.785 262.206 41.2008 261.925 38.5025C261.704 36.3966 261.232 34.4142 260.498 32.5662C259.764 30.7072 258.77 29.0159 257.54 27.4982C256.299 25.9822 254.816 24.6842 253.089 23.5938C251.363 22.5034 249.399 21.6845 247.186 21.1278C245.072 20.5924 242.857 20.3132 240.551 20.2903C238.234 20.2571 235.764 20.3907 233.132 20.6912C230.466 20.9729 227.836 21.2947 225.242 21.6658C222.648 22.0267 220.027 22.4327 217.377 22.8736C217.177 22.9911 217.056 23.1537 217.015 23.3724C216.974 23.5904 216.996 23.8023 217.081 24.0074C217.167 24.2117 217.299 24.3692 217.48 24.4679L218.885 24.5113C219.768 24.5352 220.445 24.7207 220.908 25.0782C221.381 25.4451 221.718 26.0401 221.945 26.8836C222.17 27.7263 222.344 28.8847 222.488 30.3565L225.002 54.482ZM201.964 49.2224L199.593 42.2809C199.332 41.5166 199.041 40.6611 198.697 39.7223C198.364 38.7808 198.001 37.8147 197.607 36.8265C197.223 35.834 196.834 34.8883 196.428 33.9945C196.028 33.0863 195.64 32.31 195.254 31.6341C194.869 30.9685 194.515 30.4833 194.188 30.1812C193.854 29.8909 193.386 29.7275 192.805 29.6934C192.214 29.6619 191.54 29.7496 190.76 29.953L189.223 30.3514C189.052 30.2416 188.923 30.0952 188.838 29.9113C188.753 29.7266 188.711 29.5394 188.712 29.347C188.71 29.1453 188.755 28.9827 188.847 28.861C190.006 28.5265 191.147 28.1749 192.285 27.814C193.427 27.4633 194.578 27.0751 195.736 26.6734C196.564 26.3857 197.319 26.1116 198.004 25.8631C198.679 25.6171 199.331 25.3685 199.969 25.1132C200.597 24.8612 201.266 24.5956 201.961 24.3096C202.155 24.3547 202.306 24.4713 202.418 24.6348C202.526 24.7888 202.601 24.9761 202.623 25.171C202.649 25.3762 202.631 25.5507 202.576 25.7167L201.179 26.3363C200.442 26.6598 199.858 27.0428 199.415 27.4778C198.982 27.9093 198.733 28.3562 198.681 28.8243C198.652 29.2959 198.718 29.9139 198.859 30.6859C199 31.4588 199.205 32.3211 199.462 33.2676C199.721 34.2244 200.008 35.1939 200.314 36.1906C200.631 37.1831 200.934 38.1356 201.243 39.0413C201.54 39.9402 201.815 40.7445 202.048 41.4289L204.378 48.2496C204.989 50.0064 205.481 51.805 205.839 53.6393C206.198 55.4728 206.333 57.2714 206.259 59.0521C206.187 60.8328 205.806 62.5292 205.114 64.1311C204.569 65.378 203.806 66.5427 202.811 67.6204C201.817 68.696 200.668 69.6461 199.368 70.4804C198.069 71.3143 196.67 71.9912 195.182 72.5069C193.799 72.9982 192.407 73.3692 190.988 73.6253C189.582 73.8884 188.198 73.9863 186.825 73.9225C185.45 73.8486 184.124 73.5659 182.851 73.0738C181.494 72.5655 180.252 71.7705 179.106 70.7059C177.971 69.6369 176.933 68.2637 175.975 66.5707C175.017 64.8776 174.13 62.834 173.315 60.4497L168.45 46.2041C167.927 44.6413 167.465 43.3841 167.084 42.4359C166.691 41.4808 166.297 40.7854 165.896 40.3283C165.487 39.8848 164.997 39.6269 164.433 39.575C163.868 39.5239 163.138 39.6082 162.26 39.8457L160.72 40.2449C160.57 40.1955 160.449 40.0687 160.361 39.8746C160.272 39.6805 160.223 39.4728 160.214 39.2498C160.205 39.0285 160.25 38.8659 160.346 38.7544C161.348 38.4514 162.266 38.1671 163.105 37.9092C163.943 37.6521 164.739 37.3985 165.501 37.1448C166.263 36.892 167.045 36.6324 167.833 36.3583C168.641 36.0774 169.426 35.794 170.172 35.5241C170.926 35.2509 171.707 34.9572 172.505 34.6457C173.303 34.3359 174.181 33.9971 175.135 33.6209C175.279 33.6498 175.414 33.7494 175.542 33.9299C175.671 34.1094 175.76 34.3044 175.809 34.5129C175.857 34.7206 175.84 34.896 175.75 35.0279L174.354 35.6475C173.517 36.0059 172.89 36.3923 172.477 36.7839C172.063 37.1746 171.834 37.6811 171.783 38.2837C171.746 38.894 171.86 39.6865 172.134 40.6833C172.414 41.6664 172.817 42.944 173.36 44.5L177.813 57.5378C178.634 59.9765 179.601 62.1164 180.683 63.9463C181.776 65.7731 183.034 67.2372 184.454 68.3201C185.877 69.4136 187.495 70.0665 189.313 70.2912C191.138 70.5014 193.185 70.2191 195.473 69.4359C197.635 68.6741 199.34 67.6209 200.596 66.2958C201.838 64.9646 202.694 63.4179 203.146 61.6406C203.6 59.8624 203.722 57.9302 203.494 55.826C203.27 53.7321 202.761 51.5232 201.964 49.2224ZM135.201 58.5124C134.818 57.9387 134.566 57.5072 134.434 57.2254C134.312 56.9377 134.333 56.6959 134.514 56.4883C134.686 56.2865 135.041 56.0167 135.568 55.6839L139.34 53.2146C140.8 52.2587 142.108 51.5547 143.27 51.1113C144.426 50.6584 145.458 50.4652 146.362 50.5205C146.76 50.5512 147.194 50.7367 147.653 51.0585C148.117 51.3887 148.569 51.7778 149.015 52.234C149.46 52.6911 149.856 53.1303 150.208 53.5593C150.374 53.6027 150.563 53.5814 150.775 53.481C150.983 53.395 151.163 53.2639 151.315 53.0886C151.463 52.9277 151.532 52.7439 151.52 52.5481C151.215 52.1523 150.855 51.6135 150.436 50.9231C150.026 50.2277 149.592 49.4582 149.166 48.6206C148.725 47.7805 148.322 46.9404 147.955 46.1156C147.582 45.2814 147.286 44.5494 147.075 43.8888C146.983 43.8463 146.879 43.8386 146.732 43.8846C146.593 43.9238 146.458 43.9867 146.325 44.0744C146.193 44.1612 146.089 44.254 146.015 44.3545C146.044 44.8294 146.031 45.2193 145.968 45.5512C145.906 45.884 145.764 46.1922 145.538 46.4671C145.318 46.7506 144.996 47.051 144.558 47.3881C144.124 47.7099 143.546 48.1014 142.838 48.5653L121.327 62.6467C120.519 63.1889 119.773 63.6519 119.107 64.0249C118.441 64.3968 117.832 64.6053 117.279 64.625C116.731 64.6538 116.221 64.4292 115.744 63.9423C115.647 63.9292 115.527 63.9576 115.389 64.0359C115.241 64.1193 115.1 64.212 114.984 64.3252C114.854 64.4357 114.774 64.5271 114.734 64.6027C115.082 65.4156 115.443 66.3469 115.838 67.4085C116.223 68.4748 116.602 69.5718 116.96 70.6945C117.315 71.8322 117.61 72.895 117.856 73.9011C118.027 73.9924 118.223 74.0427 118.449 74.0213C118.671 74.0152 118.877 73.9439 119.075 73.8399C119.266 73.7267 119.405 73.572 119.478 73.3727C119.385 72.7989 119.304 72.243 119.238 71.6897C119.186 71.1408 119.169 70.5678 119.2 69.99C119.224 69.4027 119.325 68.7786 119.488 68.1138C119.69 67.4098 120.088 66.7188 120.693 66.0567C121.292 65.385 121.991 64.75 122.788 64.1517C123.594 63.5472 124.383 62.994 125.159 62.4977L128.08 60.5859C128.596 60.2352 128.986 60.0182 129.25 59.9212C129.512 59.8386 129.75 59.8982 129.95 60.1101C130.164 60.3246 130.435 60.7059 130.777 61.2566L146.195 85.1889C147.1 86.5756 147.803 87.7254 148.284 88.6288C148.774 89.5256 149.058 90.2791 149.13 90.8791C149.211 91.4735 149.096 92.018 148.773 92.4948C148.443 92.9782 147.931 93.4917 147.213 94.0371L145.404 95.4492C145.326 95.6406 145.339 95.8355 145.424 96.0458C145.509 96.256 145.639 96.4382 145.797 96.5872C145.966 96.731 146.12 96.7948 146.267 96.7887C147.367 96.016 148.333 95.3461 149.165 94.7631C149.989 94.1862 150.757 93.6582 151.459 93.1849C152.153 92.7186 152.846 92.2523 153.546 91.7943C154.244 91.3362 154.941 90.8935 155.637 90.4504C156.325 90.0133 157.071 89.5496 157.876 89.061C158.672 88.5777 159.583 88.0191 160.607 87.4003C160.672 87.2683 160.671 87.0913 160.604 86.8693C160.542 86.6556 160.439 86.4563 160.301 86.281C160.156 86.0962 160.008 86.0026 159.851 85.9926L158.047 86.944C157.251 87.3894 156.569 87.6581 156.015 87.7543C155.46 87.8513 154.929 87.7298 154.441 87.402C153.944 87.0804 153.396 86.5013 152.79 85.6792C152.194 84.8519 151.437 83.7357 150.549 82.3381L135.201 58.5124ZM125.125 97.7288C126.737 99.4276 127.758 101.305 128.185 103.344C128.612 105.383 128.442 107.456 127.674 109.58C126.898 111.696 125.527 113.726 123.561 115.67C122.27 116.897 121.051 117.877 119.897 118.601C118.742 119.326 117.718 119.865 116.838 120.217C115.965 120.563 115.291 120.793 114.826 120.89C114.44 120.762 113.944 120.52 113.338 120.164C112.733 119.806 112.083 119.374 111.375 118.865C110.667 118.371 109.975 117.832 109.29 117.286C108.606 116.724 107.988 116.187 107.438 115.657C107.418 115.469 107.451 115.275 107.552 115.088C107.652 114.886 107.775 114.723 107.933 114.598C108.093 114.473 108.242 114.43 108.398 114.456C108.99 114.797 109.701 115.156 110.508 115.509C111.33 115.862 112.228 116.156 113.21 116.384C114.191 116.612 115.212 116.698 116.28 116.648C117.356 116.607 118.442 116.348 119.54 115.885C120.646 115.431 121.726 114.69 122.788 113.671C123.737 112.732 124.434 111.773 124.876 110.795C125.318 109.818 125.537 108.851 125.531 107.895C125.533 106.946 125.346 106.033 124.981 105.176C124.608 104.312 124.091 103.542 123.424 102.846C122.948 102.334 122.411 101.85 121.821 101.403C121.232 100.956 120.552 100.584 119.773 100.291C119.002 99.9913 118.11 99.81 117.081 99.747C116.059 99.6915 114.878 99.7912 113.529 100.053L106.475 101.42C105.531 101.598 104.529 101.716 103.454 101.757C102.385 101.806 101.296 101.727 100.188 101.534C99.0714 101.349 97.9871 100.998 96.936 100.483C95.8858 99.9682 94.8977 99.244 93.9882 98.3101C92.9327 97.2078 92.1706 95.9828 91.664 94.6271C91.1641 93.2789 90.9578 91.8528 91.0662 90.3573C91.1658 88.8696 91.5954 87.357 92.3602 85.8283C93.1185 84.3061 94.2417 82.8132 95.7149 81.3644C96.193 80.8989 96.7079 80.4562 97.2612 80.0222C97.8131 79.5883 98.3655 79.1836 98.9236 78.8178C99.4905 78.4441 100.025 78.1146 100.523 77.837C100.915 77.6338 101.277 77.414 101.602 77.1859C101.935 76.9512 102.191 76.7449 102.381 76.5605C102.76 76.7401 103.195 76.9962 103.712 77.3366C104.221 77.6688 104.759 78.0626 105.327 78.5009C105.908 78.9401 106.475 79.4095 107.026 79.8937C107.585 80.385 108.099 80.8749 108.569 81.3652C108.588 81.5239 108.556 81.7031 108.455 81.905C108.347 82.0982 108.217 82.2695 108.058 82.4098C107.899 82.5492 107.733 82.6226 107.562 82.6117C106.883 82.1926 106.128 81.8036 105.29 81.4505C104.453 81.1118 103.56 80.9007 102.607 80.8233C101.653 80.7464 100.649 80.909 99.605 81.2896C98.5605 81.6856 97.4884 82.4036 96.3958 83.4534C95.2936 84.5403 94.5441 85.5949 94.1385 86.6114C93.7408 87.6201 93.5892 88.5812 93.6862 89.478C93.7976 90.3752 94.0516 91.1925 94.4571 91.9219C94.8697 92.6592 95.3369 93.2999 95.857 93.8278C96.5029 94.4864 97.2179 94.9881 98.0032 95.3325C98.7886 95.6629 99.6059 95.8876 100.448 95.9855C101.29 96.0833 102.111 96.0978 102.91 96.0292C103.718 95.9675 104.459 95.8526 105.14 95.7071L110.984 94.4549C112.138 94.1897 113.321 94.0148 114.546 93.9309C115.764 93.8396 116.981 93.8837 118.209 94.0782C119.43 94.2653 120.625 94.6551 121.794 95.2324C122.97 95.8181 124.076 96.6493 125.125 97.7288ZM90.7572 135.713C89.4801 134.92 88.2079 134.383 86.9261 134.102C85.6526 133.827 84.3996 133.74 83.1702 133.856C81.9316 133.967 80.742 134.221 79.5817 134.607C78.4122 134.988 77.3069 135.446 76.2506 135.984L70.8807 138.625C70.2549 138.932 69.5626 139.225 68.7939 139.48C68.0352 139.742 67.2345 139.929 66.3945 140.039C65.5541 140.15 64.7071 140.13 63.8663 140.002C63.0211 139.859 62.2072 139.546 61.4228 139.065C60.7903 138.679 60.1841 138.172 59.6065 137.557C59.0382 136.948 58.5958 136.217 58.2716 135.374C57.9634 134.527 57.8789 133.558 58.0233 132.482C58.1736 131.397 58.6473 130.19 59.4554 128.867C60.2634 127.582 61.1314 126.623 62.0501 125.985C62.9721 125.361 63.9061 124.958 64.8501 124.801C65.7941 124.643 66.711 124.63 67.6051 124.754C68.5019 124.893 69.3279 125.087 70.0875 125.327C70.2566 125.296 70.4 125.185 70.5206 125.01C70.6417 124.835 70.726 124.638 70.7841 124.423C70.8331 124.204 70.8222 124.021 70.7658 123.872C70.1924 123.511 69.5757 123.161 68.9158 122.82C68.2646 122.485 67.6025 122.168 66.9321 121.884C66.277 121.596 65.6599 121.346 65.0865 121.148C64.5039 120.943 64.0184 120.802 63.6097 120.72C63.4695 120.945 63.2693 121.208 63.0025 121.516C62.7425 121.817 62.4436 122.117 62.1126 122.411C61.6963 122.802 61.2556 123.252 60.7962 123.753C60.3419 124.244 59.9028 124.77 59.4714 125.327C59.0391 125.883 58.6456 126.438 58.2935 127.006C57.2119 128.771 56.4806 130.494 56.11 132.155C55.7342 133.825 55.6802 135.397 55.9402 136.866C56.1944 138.344 56.7373 139.676 57.5454 140.863C58.3619 142.055 59.3954 143.057 60.6847 143.869C61.7909 144.554 62.9232 145.016 64.0673 145.26C65.2106 145.503 66.346 145.579 67.4736 145.486C68.5955 145.403 69.6706 145.214 70.6954 144.906C71.729 144.603 72.6739 144.245 73.5462 143.841L80.0638 140.795C81.3093 140.212 82.4316 139.827 83.4364 139.632C84.4494 139.443 85.3589 139.401 86.1796 139.503C87.0048 139.597 87.7543 139.793 88.4334 140.082C89.113 140.373 89.7498 140.711 90.3346 141.092C91.1488 141.606 91.8345 142.225 92.4044 142.973C92.9651 143.716 93.3645 144.556 93.5905 145.477C93.8252 146.403 93.8457 147.395 93.6512 148.451C93.4563 149.508 93.0114 150.608 92.3157 151.75C91.5294 152.999 90.6588 153.981 89.6965 154.692C88.7416 155.408 87.7495 155.924 86.7159 156.227C85.6906 156.536 84.6793 156.7 83.6728 156.718C82.6654 156.737 81.7241 156.671 80.8408 156.529C79.9728 156.383 79.1967 156.209 78.5416 156.021C78.3833 156.035 78.2483 156.113 78.1242 156.273C78.0001 156.433 77.921 156.621 77.8711 156.841C77.8187 157.047 77.834 157.244 77.8974 157.422C78.5582 157.801 79.2871 158.172 80.0856 158.549C80.881 158.913 81.6825 159.267 82.488 159.573C83.297 159.895 84.0307 160.156 84.7038 160.355C85.3772 160.553 85.917 160.667 86.3221 160.697C86.7495 160.489 87.3509 160.102 88.1131 159.554C88.8814 158.997 89.7463 158.224 90.6929 157.239C91.6391 156.255 92.5866 155.008 93.5442 153.503C94.9864 151.136 95.8299 148.832 96.0746 146.59C96.3102 144.342 95.9776 142.288 95.0733 140.414C94.17 138.539 92.7295 136.967 90.7572 135.713ZM46.6885 175.628L55.6785 183.208C56.0643 183.541 56.3624 183.741 56.5668 183.827C56.7618 183.91 56.934 183.838 57.0666 183.626C57.2093 183.418 57.3731 183.025 57.5614 182.472L60.2262 175.092C60.4416 174.526 60.5538 174.092 60.5547 173.81C60.5556 173.526 60.4205 173.341 60.1528 173.243C59.8817 173.154 59.4519 173.099 58.8584 173.096L47.9888 172.776C47.4451 172.758 46.9106 172.744 46.3634 172.735C45.8163 172.727 45.3214 172.727 44.8612 172.728C44.4003 172.728 44.0321 172.751 43.7416 172.78L43.6977 172.9C43.8303 173.062 44.1621 173.387 44.7025 173.88C45.2438 174.374 45.899 174.954 46.6885 175.628ZM74.3093 173.602L65.2639 173.272C64.7801 173.242 64.4126 173.266 64.1399 173.335C63.8737 173.42 63.6426 173.595 63.4644 173.869C63.2829 174.153 63.0912 174.593 62.8885 175.186L59.6175 184.244C59.4308 184.731 59.3194 185.131 59.2881 185.437C59.2527 185.753 59.3118 186.023 59.4621 186.259C59.5997 186.503 59.853 186.765 60.2229 187.048L65.7128 191.44C66.8893 192.382 67.8416 193.105 68.5854 193.626C69.3227 194.134 69.8489 194.452 70.1754 194.573C70.4135 194.66 70.6264 194.693 70.8178 194.661C71.018 194.633 71.2124 194.501 71.4021 194.287C71.5813 194.069 71.785 193.725 71.9934 193.269L72.8876 191.355C73.0462 191.256 73.2381 191.223 73.454 191.246C73.6677 191.279 73.8618 191.362 74.0383 191.495C74.2114 191.638 74.3071 191.809 74.3316 192.022C73.9937 192.769 73.6467 193.638 73.2656 194.631C72.885 195.623 72.4357 196.806 71.9003 198.195C71.5398 199.194 71.2046 200.214 70.8829 201.229C70.5586 202.254 70.2693 203.178 69.9997 204.019C69.8672 204.106 69.6959 204.146 69.4757 204.132C69.2558 204.12 69.05 204.067 68.859 203.974C68.6684 203.882 68.5347 203.753 68.4683 203.593L69.005 201.548C69.1488 201.057 69.1994 200.544 69.1697 200.035C69.1505 199.529 68.9901 199.007 68.7174 198.488C68.4377 197.954 67.9919 197.416 67.3892 196.879C66.6166 196.188 65.7106 195.369 64.6805 194.425C63.6409 193.477 62.4224 192.374 61.0047 191.105C59.5963 189.841 57.9329 188.382 56.0238 186.731L42.166 174.716C41.553 174.175 41.0312 173.722 40.577 173.364C40.1227 173.004 39.7157 172.73 39.351 172.529C38.9853 172.327 38.6383 172.199 38.309 172.147C38.3335 171.612 38.2913 171.109 38.1739 170.624C38.0666 170.144 37.9147 169.692 37.7255 169.283C37.5465 168.877 37.3624 168.515 37.1742 168.198C37.2426 168.007 37.3371 167.838 37.4781 167.697C37.6191 167.557 37.8015 167.488 38.0346 167.494C39.4886 167.575 40.9687 167.642 42.4835 167.677C43.9848 167.719 45.4802 167.746 46.9621 167.78L73.8517 168.339C75.2764 168.375 76.4481 168.364 77.3786 168.308C78.2981 168.25 79.0533 168.118 79.6188 167.919C80.1957 167.722 80.6572 167.439 81.0222 167.053C81.3762 166.661 81.7105 166.172 81.9998 165.555L82.7642 164C82.9237 163.9 83.1112 163.879 83.3197 163.921C83.5334 163.953 83.7274 164.037 83.9084 164.16C84.088 164.282 84.1977 164.413 84.251 164.546C83.9193 165.341 83.6042 166.12 83.297 166.879C82.9888 167.639 82.6838 168.421 82.3892 169.207C82.0903 170.003 81.7769 170.84 81.4522 171.739C80.9326 173.179 80.496 174.479 80.1214 175.644C79.7491 176.798 79.4248 177.822 79.1403 178.704C78.993 178.831 78.8143 178.89 78.5914 178.887C78.3702 178.874 78.1648 178.821 77.9817 178.708C77.7933 178.606 77.6675 178.457 77.6093 178.277L78.0586 176.472C78.2299 175.811 78.2951 175.257 78.25 174.822C78.209 174.376 78.039 174.099 77.7453 173.98C77.4184 173.86 76.966 173.773 76.3808 173.717C75.804 173.664 75.1108 173.625 74.3093 173.602ZM29.243 211.273C28.5641 211.175 28.0769 211.077 27.7814 210.986C27.4875 210.885 27.3229 210.708 27.2917 210.434C27.2579 210.17 27.2959 209.723 27.404 209.105L28.1073 204.629C28.3792 202.894 28.7355 201.444 29.1864 200.276C29.6264 199.107 30.1744 198.204 30.8203 197.564C31.109 197.287 31.5363 197.086 32.0801 196.957C32.634 196.83 33.2242 196.752 33.8583 196.724C34.4933 196.696 35.0818 196.693 35.6332 196.717C35.7776 196.621 35.8873 196.466 35.9549 196.24C36.0309 196.026 36.0553 195.804 36.0275 195.573C36.0081 195.354 35.9186 195.178 35.7658 195.057C35.2701 195.021 34.6317 194.929 33.8431 194.782C33.0553 194.625 32.1991 194.433 31.2965 194.192C30.382 193.961 29.4929 193.7 28.6384 193.424C27.7738 193.145 27.0366 192.877 26.4076 192.593C26.3164 192.633 26.2404 192.707 26.1754 192.847C26.1121 192.978 26.0682 193.121 26.0437 193.279C26.0184 193.436 26.0183 193.576 26.0411 193.699C26.4118 193.995 26.6896 194.265 26.8931 194.535C27.0966 194.804 27.2292 195.116 27.2806 195.469C27.3423 195.823 27.3482 196.266 27.3035 196.819C27.2503 197.361 27.1523 198.055 27.0206 198.896L23.0082 224.433C22.8663 225.401 22.7084 226.271 22.5378 227.019C22.3664 227.767 22.1131 228.362 21.7568 228.79C21.4115 229.22 20.9048 229.451 20.2268 229.483C20.1533 229.546 20.0926 229.655 20.0579 229.811C20.0208 229.978 19.9946 230.146 20.0014 230.309C19.9955 230.481 20.009 230.601 20.0385 230.681C20.8702 230.964 21.7982 231.318 22.8443 231.732C23.8888 232.157 24.9511 232.607 26.0183 233.091C27.0949 233.585 28.0761 234.075 28.9821 234.565C29.1636 234.497 29.3308 234.384 29.4667 234.201C29.6111 234.03 29.6955 233.828 29.7513 233.611C29.7969 233.392 29.7758 233.183 29.6778 232.996C29.1923 232.682 28.7279 232.37 28.2762 232.05C27.8362 231.722 27.4031 231.351 26.9978 230.941C26.5807 230.53 26.1881 230.036 25.8072 229.469C25.4239 228.847 25.1799 228.087 25.0971 227.19C25.0025 226.292 25.0017 225.344 25.0946 224.346C25.1892 223.338 25.3082 222.376 25.4619 221.464L26.0065 217.996C26.0935 217.374 26.1948 216.937 26.3003 216.674C26.4143 216.423 26.6178 216.283 26.9075 216.277C27.2097 216.26 27.6716 216.311 28.3057 216.424L56.2645 220.888C57.8924 221.137 59.2113 221.38 60.1984 221.624C61.1879 221.857 61.9335 222.148 62.4233 222.496C62.9156 222.832 63.2406 223.284 63.3766 223.844C63.5108 224.415 63.5463 225.143 63.4686 226.046L63.2998 228.345C63.3884 228.532 63.5404 228.653 63.7522 228.73C63.9642 228.807 64.1853 228.832 64.4025 228.812C64.6202 228.782 64.7705 228.71 64.8636 228.595C65.0314 227.253 65.1835 226.083 65.3111 225.069C65.4361 224.065 65.5611 223.137 65.6826 222.294C65.8024 221.463 65.9225 220.631 66.0532 219.801C66.1835 218.971 66.3224 218.153 66.461 217.334C66.5995 216.527 66.7573 215.658 66.9356 214.728C67.1122 213.808 67.3097 212.752 67.5383 211.57C67.4854 211.432 67.3543 211.315 67.1449 211.217C66.9465 211.12 66.7311 211.065 66.509 211.05C66.2761 211.035 66.1083 211.084 65.9942 211.195L65.4899 213.183C65.2849 214.076 65.0275 214.767 64.7268 215.248C64.427 215.727 63.9821 216.044 63.4146 216.191C62.8446 216.347 62.05 216.371 61.0394 216.275C60.0303 216.168 58.7013 215.988 57.0767 215.717L29.243 211.273ZM53.1563 255.23C54.824 255.22 56.164 255.251 57.1882 255.305C58.2015 255.369 58.9825 255.517 59.5314 255.762C60.0692 256.006 60.4601 256.39 60.7025 256.922C60.9347 257.454 61.1036 258.188 61.199 259.124L61.3889 260.72C61.5257 260.848 61.7056 260.923 61.9268 260.943C62.1489 260.965 62.36 260.943 62.5601 260.88C62.7611 260.817 62.8979 260.72 62.9721 260.592C62.93 259.54 62.8979 258.571 62.8666 257.688C62.8345 256.794 62.8134 255.942 62.8024 255.113C62.7923 254.283 62.7822 253.432 62.7822 252.549C62.7822 251.709 62.7923 250.879 62.8024 250.07C62.8134 249.261 62.8345 248.42 62.8666 247.538C62.8979 246.654 62.9299 245.685 62.9721 244.633C62.8979 244.505 62.7501 244.41 62.5289 244.346C62.3178 244.282 62.0965 244.261 61.8745 244.282C61.6422 244.303 61.4835 244.377 61.3889 244.505L61.199 246.101C61.1036 247.037 60.9347 247.772 60.7025 248.304C60.4601 248.836 60.0692 249.218 59.5314 249.463C58.9825 249.708 58.2015 249.857 57.1882 249.921C56.164 249.974 54.824 250.006 53.1563 249.995H30.6117C28.9441 250.006 27.5931 249.974 26.5587 249.921C25.5134 249.857 24.7222 249.708 24.1624 249.463C23.5925 249.218 23.2024 248.836 22.9592 248.304C22.727 247.772 22.5691 247.037 22.5058 246.101L22.3791 244.505C22.2837 244.377 22.1258 244.303 21.8936 244.282C21.6724 244.261 21.4503 244.282 21.2282 244.346C21.018 244.41 20.8694 244.505 20.7951 244.633C20.8381 245.685 20.8694 246.654 20.9006 247.538C20.9336 248.42 20.9538 249.261 20.9648 250.07C20.9749 250.879 20.9859 251.709 20.9859 252.549C20.9859 253.432 20.9749 254.283 20.9648 255.113C20.9538 255.942 20.9336 256.794 20.9006 257.688C20.8694 258.571 20.8382 259.54 20.7951 260.592C20.8694 260.72 21.018 260.817 21.2282 260.88C21.4503 260.943 21.6724 260.965 21.8936 260.943C22.1258 260.923 22.2837 260.848 22.3791 260.72L22.5058 259.124C22.5691 258.188 22.727 257.454 22.9592 256.922C23.2024 256.39 23.5925 256.006 24.1624 255.762C24.7222 255.517 25.5134 255.369 26.5587 255.305C27.5931 255.251 28.9441 255.22 30.6117 255.23H53.1563ZM52.0367 268.558C50.554 268.779 49.2368 269.191 48.0758 269.807C46.9249 270.421 45.91 271.167 45.042 272.053C44.1638 272.94 43.414 273.906 42.7706 274.953C42.1179 276.003 41.5632 277.069 41.0979 278.167L38.667 283.668C38.3841 284.31 38.0405 284.981 37.6149 285.676C37.2003 286.368 36.7064 287.03 36.133 287.659C35.5597 288.288 34.8986 288.822 34.1724 289.269C33.4344 289.706 32.6112 289.995 31.7035 290.134C30.9731 290.248 30.1853 290.252 29.3502 290.156C28.527 290.057 27.7214 289.785 26.9353 289.349C26.1594 288.9 25.4771 288.212 24.9012 287.294C24.3246 286.366 23.9184 285.134 23.6938 283.597C23.4937 282.089 23.5477 280.793 23.8441 279.708C24.1523 278.633 24.6116 277.719 25.234 276.987C25.8563 276.254 26.5503 275.651 27.3145 275.166C28.0896 274.691 28.8462 274.304 29.5816 273.996C29.6905 273.863 29.7302 273.685 29.7108 273.473C29.6922 273.261 29.6305 273.054 29.5385 272.851C29.4364 272.652 29.3114 272.52 29.1729 272.442C28.5042 272.537 27.8076 272.668 27.0856 272.834C26.3721 272.999 25.6637 273.186 24.9688 273.403C24.2832 273.607 23.6516 273.815 23.085 274.036C22.5083 274.257 22.0464 274.462 21.6808 274.664C21.7171 274.928 21.7315 275.258 21.7247 275.668C21.7163 276.067 21.6791 276.491 21.6124 276.93C21.5432 277.498 21.4925 278.13 21.4596 278.811C21.425 279.482 21.425 280.169 21.4486 280.875C21.4723 281.581 21.5246 282.261 21.6175 282.925C21.9139 284.979 22.4517 286.771 23.2277 288.284C24.0045 289.807 24.9663 291.046 26.102 292.002C27.2385 292.969 28.5042 293.639 29.8797 294.024C31.2644 294.409 32.6965 294.507 34.2011 294.293C35.4854 294.101 36.6473 293.721 37.6791 293.167C38.71 292.612 39.6279 291.934 40.4326 291.133C41.239 290.341 41.9423 289.5 42.5308 288.6C43.1303 287.699 43.6251 286.813 44.0355 285.937L47.087 279.38C47.6688 278.127 48.2827 277.106 48.9277 276.305C49.5838 275.503 50.2534 274.882 50.9475 274.429C51.6399 273.965 52.339 273.63 53.0441 273.412C53.7491 273.193 54.4525 273.041 55.144 272.954C56.0948 272.818 57.0151 272.849 57.9287 273.053C58.8314 273.257 59.6732 273.643 60.434 274.201C61.204 274.759 61.8517 275.505 62.3769 276.441C62.9012 277.376 63.2618 278.508 63.4568 279.834C63.651 281.3 63.6105 282.616 63.3259 283.784C63.0515 284.952 62.6209 285.99 62.0223 286.893C61.4329 287.792 60.7641 288.574 60.0042 289.241C59.2451 289.908 58.4801 290.467 57.7134 290.93C56.956 291.381 56.251 291.75 55.6287 292.032C55.5172 292.144 55.4632 292.29 55.4691 292.494C55.4767 292.697 55.5358 292.893 55.6388 293.094C55.7291 293.285 55.8659 293.427 56.0289 293.522C56.777 293.384 57.5715 293.196 58.4235 292.967C59.2654 292.729 60.1047 292.482 60.9169 292.195C61.7419 291.917 62.4706 291.642 63.1131 291.358C63.7557 291.073 64.2413 290.811 64.5704 290.571C64.7657 290.135 64.9794 289.449 65.2141 288.535C65.447 287.61 65.6166 286.458 65.7136 285.09C65.8111 283.723 65.7416 282.153 65.5152 280.379C65.1118 277.633 64.2885 275.321 63.0464 273.446C61.7934 271.571 60.2297 270.213 58.3416 269.363C56.4536 268.513 54.3477 268.241 52.0367 268.558ZM38.4213 334.697L52.4327 329.833C52.9714 329.646 53.4004 329.497 53.7229 329.362C54.0455 329.228 54.2574 329.099 54.3461 328.966C54.3891 328.895 54.3841 328.716 54.3444 328.438C54.292 328.152 54.1873 327.716 54.0049 327.116C53.8352 326.521 53.5701 325.714 53.2239 324.698C52.9858 323.969 52.6953 323.248 52.3643 322.542C52.0376 321.846 51.6441 321.183 51.1805 320.579C50.7305 319.981 50.1715 319.455 49.5433 319.02C48.9446 318.609 48.2438 318.289 47.451 318.058C46.6572 317.828 45.7352 317.743 44.6839 317.803C43.6403 317.851 42.4379 318.122 41.087 318.579C39.8896 318.995 38.8139 319.571 37.8471 320.334C36.8795 321.098 36.0908 322.025 35.4905 323.111C34.8909 324.197 34.5456 325.442 34.4629 326.832C34.3691 328.226 34.6047 329.765 35.1654 331.439C35.4812 332.363 35.7522 333.092 35.9743 333.611C36.2056 334.126 36.4294 334.488 36.6456 334.694C36.8575 334.89 37.1024 334.986 37.3827 334.956C37.6656 334.936 38.0058 334.852 38.4213 334.697ZM67.0571 330.294L45.5604 337.754C44.1402 338.237 43.0028 338.665 42.1323 339.024C41.2609 339.383 40.6099 339.733 40.1691 340.076C39.7393 340.417 39.4784 340.8 39.383 341.238C39.2868 341.677 39.3129 342.208 39.4624 342.843L39.882 344.858C39.8204 345.036 39.6921 345.182 39.5096 345.302C39.3239 345.412 39.1246 345.481 38.9034 345.489C38.6872 345.509 38.5099 345.447 38.3647 345.316C37.8834 344.235 37.3742 343.038 36.8474 341.725C36.3247 340.42 35.7725 338.969 35.1831 337.373C34.5895 335.768 33.9579 333.984 33.2875 332.022C32.8518 330.778 32.4828 329.534 32.167 328.316C31.8614 327.093 31.6427 325.898 31.5447 324.728C31.4333 323.552 31.4586 322.417 31.6418 321.319C31.8065 320.169 32.1408 319.086 32.6644 318.071C33.1853 317.046 33.9039 316.144 34.8344 315.338C35.7539 314.534 36.9191 313.894 38.3132 313.398C39.7368 312.927 41.0903 312.739 42.3628 312.837C43.6352 312.935 44.8207 313.233 45.8998 313.713C46.9823 314.204 47.939 314.783 48.7833 315.458C49.6277 316.132 50.326 316.802 50.89 317.472C51.1273 317.548 51.3536 317.492 51.5824 317.311C51.8248 317.138 52.0291 316.919 52.2233 316.672C54.2422 314.182 56.0094 311.937 57.5352 309.934C59.0475 307.924 60.3436 306.033 61.405 304.269C62.479 302.512 63.3394 300.75 64.0074 299.011C64.2867 298.329 64.4471 297.586 64.4987 296.758C64.5546 295.94 64.4733 295.113 64.2605 294.264C64.2793 294.089 64.3781 293.953 64.5502 293.871C64.7176 293.802 64.8973 293.807 65.0782 293.913C65.2613 294.154 65.458 294.501 65.6726 294.933C65.8801 295.378 66.0851 295.881 66.2844 296.464C66.7311 297.739 67.0199 298.944 67.155 300.09C67.2896 301.236 67.2516 302.397 67.0182 303.547C66.7896 304.707 66.3513 305.94 65.7027 307.245C65.045 308.553 64.1508 309.989 63.0084 311.578C62.5837 312.164 62.0763 312.836 61.4928 313.578C60.9127 314.331 60.2862 315.112 59.6394 315.932C58.9901 316.742 58.3408 317.553 57.7142 318.367C57.0852 319.17 56.5043 319.924 55.9875 320.632C55.6481 321.076 55.3981 321.523 55.2327 321.985C55.0773 322.445 55.019 322.961 55.0578 323.532C55.1068 324.1 55.2639 324.788 55.5349 325.583C55.8279 326.472 56.0711 327.118 56.2577 327.504C56.4452 327.889 56.6546 328.109 56.8783 328.143C57.1021 328.178 57.4187 328.125 57.8215 327.963L65.3658 325.343C66.9264 324.813 68.1733 324.347 69.0946 323.971C70.0219 323.581 70.6924 323.191 71.1154 322.796C71.5358 322.393 71.7714 321.904 71.823 321.336C71.8737 320.766 71.7994 320.027 71.6132 319.124L71.3602 317.794C71.4283 317.635 71.5643 317.509 71.767 317.417C71.9698 317.324 72.1866 317.271 72.4064 317.262C72.6267 317.253 72.7871 317.298 72.8985 317.395C73.1647 318.304 73.423 319.16 73.6642 319.965C73.9024 320.76 74.1471 321.542 74.3949 322.299C74.6432 323.058 74.9006 323.846 75.1724 324.641C75.4578 325.476 75.7493 326.297 76.0303 327.088C76.3114 327.88 76.6103 328.688 76.9219 329.502C77.2379 330.327 77.5696 331.202 77.9293 332.123C77.9004 332.269 77.8117 332.4 77.643 332.527C77.4835 332.649 77.3004 332.735 77.0849 332.789C76.8677 332.841 76.6645 332.832 76.4735 332.764L75.7786 331.317C75.3936 330.482 74.9994 329.854 74.6218 329.434C74.2341 329.018 73.7503 328.78 73.173 328.722C72.5887 328.676 71.8116 328.789 70.8427 329.058C69.8773 329.337 68.6099 329.743 67.0571 330.294ZM84.3515 365.81C85.7719 364.97 86.9541 364.332 87.8684 363.886C88.7826 363.439 89.5435 363.193 90.1414 363.152C90.7349 363.102 91.2676 363.247 91.7287 363.604C92.1845 363.953 92.667 364.496 93.1701 365.247L94.3793 366.977C94.5616 367.018 94.7543 366.992 94.9567 366.899C95.1586 366.805 95.3308 366.681 95.4728 366.524C95.6153 366.368 95.6865 366.216 95.6874 366.068C95.0327 365.011 94.4571 364.069 93.9493 363.246C93.4419 362.424 92.9743 361.651 92.5377 360.91C92.1072 360.178 91.6653 359.427 91.2161 358.644L88.3666 353.669C86.9571 351.209 85.5573 348.743 84.171 346.258C82.7896 343.781 81.4146 341.276 80.0454 338.756C79.5555 338.795 78.9222 338.881 78.136 339.019C77.3502 339.158 76.5041 339.318 75.6173 339.516C74.7249 339.703 73.867 339.907 73.0471 340.114C72.2272 340.321 71.5485 340.52 70.997 340.705C70.8799 340.884 70.8204 341.078 70.8239 341.297C70.8375 341.511 70.8965 341.722 71.0022 341.906C71.0992 342.095 71.2343 342.225 71.4047 342.311C73.2565 342.204 74.8425 342.227 76.1527 342.386C77.4625 342.545 78.3995 342.798 78.9729 343.14C79.4012 343.419 79.8247 343.798 80.2748 344.286C80.7158 344.778 81.2153 345.458 81.787 346.33C82.3595 347.201 83.0461 348.337 83.8485 349.738C84.5399 350.945 85.0788 351.971 85.4686 352.8C85.8488 353.635 86.1272 354.333 86.2828 354.882C86.4379 355.429 86.5175 355.887 86.524 356.24C86.5358 356.602 86.493 356.909 86.4187 357.161C86.1998 357.865 85.6596 358.562 84.7973 359.247C83.9355 359.933 82.7743 360.696 81.3159 361.532L73.5834 366.032C73.1223 366.313 72.7626 366.473 72.5109 366.521C72.2443 366.566 72.0205 366.476 71.8125 366.239C71.6101 366.013 71.3602 365.619 71.0577 365.069L69.2213 361.864C68.6081 360.794 68.1204 359.899 67.7616 359.187C67.4015 358.474 67.1646 357.889 67.0571 357.447C66.8919 356.818 66.9212 356.272 67.1532 355.806C67.3766 355.344 67.7148 354.914 68.1597 354.52L70.0141 352.777C70.0657 352.612 70.0539 352.422 69.9796 352.208C69.9 351.983 69.7803 351.796 69.6242 351.628C69.4722 351.471 69.3109 351.379 69.1352 351.372C68.7239 351.611 68.2502 351.912 67.7048 352.278C67.1594 352.645 66.5676 353.038 65.94 353.453C65.312 353.867 64.6643 354.269 63.9974 354.657C63.2938 355.066 62.5972 355.447 61.8905 355.809C61.1931 356.166 60.5319 356.502 59.9172 356.811C59.3016 357.119 58.7706 357.404 58.3315 357.66C58.2504 357.817 58.2479 358.004 58.3078 358.215C58.3729 358.434 58.4742 358.633 58.627 358.815C58.7739 358.986 58.9318 359.092 59.0999 359.13L61.6017 358.262C62.1016 358.094 62.517 357.988 62.8472 357.969C63.1714 357.939 63.4331 357.97 63.6561 358.062C63.879 358.153 64.09 358.289 64.281 358.473C64.5856 358.75 65.0013 359.282 65.5205 360.062C66.0388 360.84 66.6314 361.81 67.3023 362.981L69.1378 366.187C69.4586 366.726 69.6723 367.141 69.7742 367.426C69.8817 367.72 69.8393 367.966 69.6679 368.176C69.4905 368.378 69.1553 368.622 68.647 368.905L57.6788 375.289C56.9982 375.698 56.4941 375.966 56.1429 376.096C55.8051 376.232 55.5197 376.201 55.3061 376.019C55.0866 375.828 54.8367 375.456 54.5344 374.907L52.2554 370.926C51.5495 369.715 50.9754 368.648 50.5093 367.729C50.039 366.823 49.7079 366.033 49.5129 365.372C49.2799 364.562 49.1988 363.822 49.2596 363.185C49.3161 362.539 49.4884 361.946 49.773 361.401C50.0575 360.854 50.4172 360.312 50.8588 359.785C51.3055 359.267 51.7834 358.719 52.3171 358.138C52.3685 357.973 52.3525 357.798 52.2605 357.593C52.1735 357.399 52.0494 357.225 51.8889 357.072C51.7285 356.92 51.5723 356.839 51.4153 356.821C50.8343 357.231 50.1952 357.689 49.4918 358.185C48.7977 358.676 48.1087 359.175 47.4433 359.672C46.7721 360.161 46.1835 360.602 45.6828 361.004C45.1729 361.411 44.8266 361.723 44.6282 361.95C44.8199 362.157 45.1306 362.615 45.5756 363.327C46.0104 364.044 46.5348 364.919 47.1318 365.96C47.7422 367.005 48.3806 368.12 49.0671 369.318L55.0199 379.712C55.4471 380.457 55.855 381.192 56.2417 381.887C56.6335 382.594 57.0159 383.305 57.3951 384.03C57.7742 384.755 58.1795 385.527 58.5915 386.331C58.719 386.404 58.8947 386.413 59.1083 386.362C59.3321 386.306 59.5347 386.212 59.7163 386.082C59.9071 385.947 60.0067 385.803 60.0253 385.644L59.6293 384.696C59.2468 383.836 59.0289 383.116 58.9757 382.533C58.9217 381.949 59.0703 381.421 59.4241 380.932C59.7686 380.45 60.3715 379.926 61.2082 379.366C62.0585 378.81 63.1858 378.116 64.6075 377.301L84.3515 365.81ZM108.021 393.662L94.5904 420.319C94.0188 421.454 93.5905 422.436 93.3401 423.247C93.0813 424.067 93.0062 424.823 93.1093 425.509C93.2107 426.194 93.5197 426.91 94.0371 427.656L94.6892 428.607C94.6822 428.81 94.6175 428.994 94.4864 429.151C94.3557 429.322 94.1901 429.439 93.9978 429.524C93.7976 429.599 93.6023 429.616 93.4109 429.558C92.8637 428.825 92.2514 428.051 91.5757 427.218C90.9088 426.379 90.1204 425.449 89.2337 424.421C88.6319 423.723 88.0423 423.055 87.4868 422.427C86.9388 421.808 86.3754 421.187 85.8191 420.59C85.2549 419.985 84.6697 419.355 84.0635 418.717C84.0382 418.542 84.0806 418.364 84.175 418.182C84.2781 417.993 84.4232 417.837 84.6033 417.722C84.7916 417.599 84.9747 417.552 85.1758 417.574L85.8943 418.212C86.493 418.745 86.9825 419.134 87.3465 419.378C87.7189 419.615 88.0095 419.756 88.2315 419.788C88.4452 419.825 88.6205 419.785 88.7551 419.681C88.8941 419.503 89.1712 419.062 89.6025 418.346C90.0343 417.629 90.5701 416.695 91.2204 415.518C91.862 414.349 92.5792 412.975 93.3685 411.409C95.1922 407.879 96.9849 404.348 98.7571 400.808C100.535 397.274 102.272 393.71 103.958 390.118C102.836 390.437 101.605 390.811 100.289 391.232C98.9735 391.651 97.6427 392.07 96.3027 392.512C94.9549 392.96 93.6919 393.376 92.4822 393.773C91.2873 394.172 90.2467 394.505 89.3595 394.79C88.4553 395.088 87.4759 395.411 86.396 395.765C85.3244 396.111 84.2217 396.486 83.1033 396.861C81.9762 397.241 80.8897 397.602 79.8247 397.956C78.7679 398.32 77.8025 398.644 76.9437 398.945C76.0701 399.246 75.349 399.497 74.79 399.691C74.1362 399.939 73.6341 400.168 73.291 400.37C72.9549 400.565 72.7045 400.742 72.5515 400.89C72.4401 400.989 72.3693 401.149 72.3684 401.376C72.3741 401.609 72.4501 401.924 72.6315 402.33C72.798 402.733 73.0987 403.245 73.5134 403.855L74.1659 404.806C74.1589 405.008 74.0864 405.184 73.9395 405.355C73.801 405.519 73.6279 405.642 73.4278 405.719C73.2355 405.803 73.0563 405.806 72.8876 405.756C72.3461 405.032 71.7063 404.225 70.9826 403.337C70.2741 402.449 69.5058 401.543 68.7095 400.62C68.0247 399.825 67.3442 399.053 66.6546 398.318C65.9662 397.568 65.2696 396.825 64.5367 396.072C64.5113 395.896 64.5603 395.727 64.6853 395.547C64.8094 395.367 64.9624 395.219 65.142 395.104C65.3151 394.98 65.4916 394.925 65.649 394.928L66.9898 396.29C67.53 396.818 68.1125 397.153 68.7375 397.311C69.3555 397.46 70.0582 397.464 70.823 397.33C72.5432 397.021 74.7341 396.496 77.3956 395.772C80.0572 395.047 83.0741 394.15 86.4694 393.092L94.5913 390.543C96.1214 390.063 97.6986 389.54 99.3148 388.998C100.938 388.464 102.517 387.927 104.051 387.386C105.576 386.852 106.98 386.341 108.248 385.864C109.515 385.387 110.562 384.979 111.387 384.622C111.496 384.653 111.598 384.706 111.713 384.774C111.813 384.841 111.903 384.93 111.987 385.027C112.195 385.268 112.355 385.551 112.467 385.875C111.942 386.646 111.429 387.461 110.912 388.337C110.395 389.214 109.899 390.099 109.41 391.007C108.92 391.915 108.455 392.802 108.021 393.662ZM131.29 417.534C132.285 416.185 133.117 415.125 133.776 414.332C134.436 413.555 135.024 413.016 135.548 412.722C136.066 412.436 136.605 412.351 137.172 412.477C137.733 412.61 138.416 412.915 139.216 413.403L140.594 414.21C140.778 414.177 140.944 414.077 141.095 413.911C141.245 413.745 141.356 413.563 141.426 413.363C141.496 413.162 141.502 412.994 141.446 412.858C140.586 412.259 139.8 411.701 139.081 411.196C138.354 410.682 137.667 410.187 137.003 409.697C136.339 409.206 135.659 408.702 134.959 408.171C134.293 407.664 133.641 407.157 133.007 406.662C132.373 406.167 131.72 405.643 131.039 405.087C130.359 404.53 129.612 403.921 128.803 403.253C128.657 403.235 128.492 403.298 128.308 403.438C128.13 403.569 127.979 403.734 127.863 403.926C127.74 404.126 127.704 404.298 127.748 404.452L128.898 405.565C129.583 406.204 130.062 406.782 130.344 407.29C130.62 407.804 130.688 408.35 130.558 408.931C130.422 409.52 130.07 410.238 129.51 411.093C128.937 411.949 128.155 413.047 127.143 414.384L113.575 432.534C112.581 433.883 111.741 434.952 111.078 435.752C110.398 436.555 109.803 437.102 109.273 437.406C108.736 437.717 108.197 437.802 107.63 437.676C107.068 437.543 106.392 437.229 105.612 436.716L104.271 435.857C104.113 435.857 103.959 435.94 103.802 436.113C103.652 436.28 103.535 436.471 103.453 436.688C103.376 436.896 103.363 437.073 103.42 437.209C104.28 437.808 105.066 438.367 105.784 438.872C106.503 439.378 107.181 439.867 107.828 440.345C108.476 440.823 109.14 441.315 109.805 441.82C110.505 442.351 111.173 442.873 111.824 443.381C112.475 443.888 113.137 444.418 113.826 444.981C114.507 445.538 115.254 446.146 116.063 446.814C116.209 446.832 116.374 446.77 116.552 446.638C116.736 446.498 116.886 446.333 117.003 446.142C117.125 445.942 117.161 445.77 117.118 445.616L115.929 444.554C115.225 443.939 114.74 443.37 114.458 442.863C114.182 442.347 114.114 441.803 114.262 441.196C114.406 440.599 114.764 439.872 115.342 438.992C115.923 438.127 116.71 437.021 117.723 435.684L131.29 417.534ZM138.276 444.429L144.91 430.715C145.082 430.361 145.337 429.835 145.665 429.156C145.998 428.468 146.354 427.708 146.761 426.866C147.159 426.02 147.556 425.174 147.95 424.337C148.343 423.501 148.685 422.745 148.981 422.086C149.272 421.412 149.484 420.924 149.599 420.59C149.739 420.446 149.926 420.349 150.161 420.322C150.393 420.282 150.668 420.346 150.985 420.491C151.031 420.809 151.12 421.255 151.248 421.815C151.372 422.386 151.549 423.136 151.779 424.066C152.011 424.997 152.324 426.169 152.697 427.583C153.069 428.998 153.531 430.715 154.079 432.737L159.955 454.378C160.092 454.895 160.259 455.545 160.45 456.314C160.652 457.09 160.858 457.924 161.083 458.816C161.305 459.694 161.526 460.573 161.742 461.434C161.963 462.29 162.174 463.068 162.354 463.763C162.537 464.454 162.688 464.991 162.809 465.371L162.923 465.428C163.204 465.14 163.52 464.676 163.863 464.065C164.212 463.444 164.592 462.705 165.012 461.836L171.065 449.328C171.332 448.773 171.671 448.075 172.073 447.219C172.475 446.363 172.89 445.431 173.325 444.437C173.773 443.438 174.179 442.454 174.556 441.479C174.938 440.496 175.246 439.616 175.47 438.815C175.702 438.018 175.805 437.394 175.787 436.947C175.759 436.542 175.528 436.121 175.099 435.697C174.665 435.258 174.105 434.84 173.411 434.429L171.729 433.39C171.675 433.066 171.728 432.762 171.891 432.498C172.044 432.23 172.265 432.065 172.537 432.011C173.771 432.688 174.915 433.31 175.978 433.856C177.027 434.407 178.071 434.944 179.113 435.457C179.901 435.845 180.626 436.19 181.277 436.497C181.926 436.805 182.562 437.094 183.182 437.363C183.794 437.628 184.444 437.911 185.117 438.195C185.199 438.367 185.229 438.547 185.198 438.757C185.167 438.966 185.088 439.153 184.967 439.33C184.851 439.497 184.71 439.617 184.537 439.686L182.916 439.103C182.211 438.862 181.605 438.73 181.081 438.697C180.566 438.669 180.152 438.773 179.856 439.019C179.491 439.361 179.081 439.893 178.626 440.592C178.161 441.286 177.691 442.086 177.191 442.976C176.694 443.88 176.204 444.798 175.726 445.737C175.25 446.674 174.809 447.558 174.407 448.391C174.009 449.213 173.671 449.911 173.398 450.475L165.376 467.058C165.107 467.587 164.885 468.094 164.71 468.579C164.535 469.06 164.432 469.567 164.404 470.083C164.376 470.603 164.453 471.175 164.628 471.805C164.843 472.408 165.216 472.967 165.726 473.492C166.246 474.02 166.835 474.501 167.491 474.916L168.403 475.506C168.458 475.685 168.459 475.878 168.39 476.092C168.336 476.302 168.234 476.49 168.088 476.643C167.953 476.8 167.788 476.874 167.595 476.887C167.007 476.551 166.399 476.205 165.773 475.873C165.142 475.524 164.534 475.205 163.942 474.899C163.348 474.597 162.817 474.335 162.347 474.09C161.873 473.859 161.513 473.684 161.246 473.553C160.782 473.321 160.322 473.107 159.848 472.923C159.379 472.727 158.953 472.565 158.546 472.434C158.6 471.717 158.529 470.773 158.353 469.584C158.185 468.4 157.936 467.093 157.634 465.677C157.328 464.274 156.998 462.867 156.64 461.473C156.295 460.07 155.957 458.803 155.648 457.671C155.34 456.536 155.096 455.658 154.919 455.027L152.424 446.058C151.833 443.956 151.29 442.02 150.796 440.25C150.297 438.489 149.833 436.853 149.388 435.343C148.944 433.834 148.495 432.407 148.058 431.055L147.943 430.999C147.756 431.097 147.551 431.349 147.328 431.761C147.096 432.168 146.836 432.68 146.551 433.298L140.609 445.576C140.342 446.13 140.004 446.83 139.601 447.685C139.208 448.545 138.783 449.473 138.349 450.467C137.911 451.47 137.514 452.459 137.136 453.434C136.764 454.423 136.475 455.311 136.261 456.117C136.038 456.919 135.954 457.553 136.001 458.012C136.023 458.235 136.138 458.484 136.334 458.759C136.535 459.021 136.845 459.327 137.273 459.681C137.696 460.018 138.263 460.428 138.975 460.896L139.887 461.486C139.96 461.674 139.967 461.879 139.898 462.094C139.838 462.316 139.728 462.496 139.583 462.649C139.428 462.802 139.263 462.872 139.079 462.867C138.225 462.4 137.433 461.971 136.697 461.573C135.962 461.18 135.249 460.804 134.553 460.45C133.864 460.101 133.158 459.742 132.446 459.393C131.639 458.995 130.905 458.645 130.256 458.335C129.605 458.029 128.979 457.745 128.378 457.487C127.776 457.225 127.154 456.955 126.5 456.68C126.399 456.5 126.36 456.315 126.391 456.106C126.432 455.9 126.51 455.715 126.631 455.537C126.756 455.374 126.906 455.258 127.08 455.19L127.933 455.467C128.913 455.771 129.731 455.948 130.384 456.009C131.026 456.064 131.464 456.007 131.704 455.829C132.097 455.502 132.535 454.983 133.014 454.284C133.503 453.589 133.996 452.789 134.502 451.89C135.008 450.99 135.499 450.072 135.98 449.124C136.458 448.187 136.888 447.298 137.286 446.475C137.684 445.653 138.012 444.974 138.276 444.429ZM192.515 461.421C193.007 459.034 193.7 456.876 194.577 454.964C195.457 453.042 196.549 451.449 197.846 450.16C199.143 448.871 200.666 447.99 202.411 447.494C204.164 447.011 206.163 446.993 208.406 447.463C210.768 447.98 212.667 448.8 214.124 449.929C215.566 451.065 216.62 452.464 217.281 454.14C217.945 455.805 218.276 457.714 218.279 459.847C218.273 461.98 218.007 464.314 217.466 466.831L214.621 480.318C214.291 481.935 213.984 483.237 213.721 484.225C213.447 485.222 213.141 485.96 212.797 486.467C212.445 486.957 211.99 487.271 211.436 487.394C210.882 487.512 210.147 487.52 209.246 487.389L207.732 487.197C207.589 487.263 207.484 487.402 207.419 487.608C207.355 487.813 207.331 488.023 207.35 488.246C207.367 488.469 207.432 488.622 207.54 488.722C208.55 488.893 209.476 489.059 210.32 489.207C211.162 489.356 211.982 489.509 212.768 489.666C213.545 489.824 214.363 489.99 215.199 490.164C216.015 490.344 216.818 490.523 217.601 490.702C218.382 490.881 219.194 491.078 220.044 491.292C220.895 491.506 221.827 491.738 222.841 492C222.98 491.952 223.102 491.838 223.207 491.642C223.314 491.449 223.378 491.244 223.401 491.034C223.424 490.82 223.384 490.65 223.28 490.527L221.758 490.073C220.883 489.819 220.215 489.513 219.757 489.177C219.299 488.836 219.01 488.364 218.887 487.769C218.778 487.171 218.795 486.367 218.945 485.344C219.104 484.334 219.35 483.019 219.701 481.406L222.809 466.669C223.328 464.204 223.612 461.993 223.654 460.044C223.699 458.095 223.511 456.378 223.084 454.872C222.646 453.365 221.987 452.037 221.083 450.897C220.243 449.815 219.253 448.884 218.112 448.107C216.967 447.34 215.731 446.705 214.391 446.2C213.044 445.683 211.661 445.279 210.224 444.981C208.686 444.651 207.141 444.505 205.601 444.545C204.06 444.585 202.59 444.803 201.188 445.21C199.785 445.616 198.536 446.218 197.432 447.004C196.02 448.018 194.828 449.274 193.855 450.763C192.883 452.251 192.079 453.864 191.45 455.621C190.821 457.378 190.323 459.174 189.949 461.001L188.461 468.055C188.312 468.763 188.136 469.597 187.93 470.52C187.734 471.459 187.506 472.43 187.271 473.448C187.025 474.457 186.775 475.441 186.509 476.393C186.245 477.337 185.981 478.185 185.707 478.919C185.433 479.654 185.173 480.222 184.908 480.611C184.624 480.982 184.182 481.236 183.591 481.38C182.989 481.524 182.292 481.55 181.495 481.441L179.981 481.249C179.851 481.363 179.745 481.502 179.662 481.695C179.581 481.87 179.55 482.071 179.564 482.258C179.576 482.455 179.647 482.634 179.789 482.774C180.532 482.892 181.24 483.01 181.907 483.119C182.585 483.233 183.271 483.36 183.975 483.5C184.69 483.64 185.477 483.797 186.334 483.98C187.531 484.238 188.716 484.505 189.874 484.793C191.034 485.077 192.192 485.366 193.355 485.68C193.497 485.624 193.619 485.51 193.72 485.335C193.819 485.173 193.879 484.99 193.9 484.789C193.921 484.583 193.887 484.391 193.795 484.208L192.273 483.753C191.502 483.521 190.88 483.246 190.389 482.914C189.909 482.582 189.59 482.197 189.453 481.778C189.327 481.349 189.27 480.751 189.281 479.977C189.295 479.199 189.359 478.334 189.48 477.346C189.59 476.367 189.739 475.358 189.916 474.304C190.084 473.255 190.267 472.237 190.462 471.258C190.647 470.275 190.834 469.392 191.001 468.601L192.515 461.421Z" fill="black"/>
</svg>
